<?xml version="1.0" encoding="UTF-8"?>
<svg id="Ebene_1" data-name="Ebene 1" xmlns="http://www.w3.org/2000/svg" viewBox="0 0 175.02 216.42">
  <defs>
    <style>
      .cls-1 {
        fill: #fff;
      }

      .cls-2 {
        fill: #405362;
      }

      .cls-2, .cls-3 {
        stroke: #fff;
        stroke-miterlimit: 10;
      }

      .cls-3 {
        fill: #8cc04d;
      }
    </style>
  </defs>
  <rect class="cls-2" x="25.87" y="8.04" width="136.74" height="191.88" rx="11" ry="11" transform="translate(16.39 -12.78) rotate(8.49)"/>
  <rect class="cls-2" x="18.86" y="11.68" width="136.74" height="191.88" rx="11" ry="11" transform="translate(7.92 -5.97) rotate(4.1)"/>
  <rect class="cls-2" x="12.77" y="15.41" width="136.74" height="191.88" rx="11" ry="11"/>
  <g>
    <rect class="cls-3" x="6.5" y="20.1" width="136.74" height="191.88" rx="11" ry="11" transform="translate(-8.2 5.72) rotate(-4.15)"/>
    <g>
      <path class="cls-1" d="m82.82,133.46l-18.46,1.34c-3.08-7.89-.76-17.91,5.72-23.77,3.34-3.01,7.02-5.63,10.49-8.49,2.61-2.16,4.57-4.77,5.21-8.22,1.52-8.23-3.54-14.54-11.9-14.8-3.57-.11-7.01.39-10.05,2.41-3.86,2.56-6,6.11-5.86,10.85.02.55.01,1.1.02,1.77-6.48.47-12.88.93-19.57,1.42-.03-1.19-.08-2.35-.07-3.5.08-16.51,10.81-25.7,23.84-28.91,9.46-2.33,18.92-2.4,28.23,1.11,19.39,7.29,23.95,33.19,7.06,46.28-2.82,2.18-5.66,4.33-8.53,6.45-5,3.7-7.03,8.61-6.12,14.75.05.36,0,.74,0,1.31Z"/>
      <path class="cls-1" d="m76.36,170.17c-6.19.42-11.04-2.63-12.17-7.68-2.22-9.9,4.99-16.89,14.98-14.52,5.73,1.36,8.67,5.74,8.25,12.27-.33,5.08-4.51,9.23-9.93,9.84-.37.04-.75.06-1.12.09Z"/>
    </g>
  </g>
</svg>