<?xml version="1.0" encoding="utf-8"?>
<!-- Generator: Adobe Illustrator 25.2.1, SVG Export Plug-In . SVG Version: 6.00 Build 0)  -->
<svg version="1.1" id="Ebene_1" xmlns="http://www.w3.org/2000/svg" xmlns:xlink="http://www.w3.org/1999/xlink" x="0px" y="0px"
	 viewBox="0 0 770.7 163.3" style="enable-background:new 0 0 770.7 163.3;" xml:space="preserve">
<style type="text/css">
	.st0{fill:#B51783;}
	.st1{fill:#66696C;}
	.st2{clip-path:url(#SVGID_2_);fill:#B41881;}
</style>
<g>
	<path class="st0" d="M135,59c-13,13.1-22.5,29.1-28.4,46.5c-2.4,7.3-4.5,15-5.2,22.7c-0.1,1.1-0.8,2.1-2,2.1
		c-11.3,0-22.5,0-33.8,0.1c-0.4,0-0.7-0.1-0.9-0.2c-0.7-0.3-1.2-0.9-1.1-1.9c0.6-6.7,2.3-13.5,4.4-19.9c11.5-35.9,38.6-63.8,73-78.6
		c5.2-2.2,9.6-3.7,15-5.4c-2.5-11.6-10.2-20.8-21.4-20.8H24.9C12.5,3.6,0,14.5,0,27.9v107.3c0,13.4,12.5,24.5,24.9,24.5h109.7
		c12.4,0,21.4-11.1,21.4-24.5V42.7C148.3,47.1,141.5,52.5,135,59L135,59z M58.8,130c-0.4,0-0.7,0-1.1,0c-0.7,0-1.5-0.2-1.8-0.9
		c-9.2-21.7-18.5-43.3-27.7-65C27.6,62.7,28.3,61,30,61c11.3,0,22.5,0,33.8,0.1c0.7-0.2,1.5,0.1,2,1c3,6.4,6.1,12.9,9.1,19.3
		c1.1,2.4,0.2,3.2-1.1,5.6c-2.3,3.9-4.4,7.9-6,12.1c-3.6,9.2-6.4,19.1-6.9,29C60.9,129.2,60,130,58.8,130L58.8,130z"/>
	<path class="st1" d="M254.4,103.4c0-8.3-2-16.3-16.2-24.6l-22-12.9c-4.2-2.4-6.7-4-6.7-6.6c0-5,3.5-6.8,11.6-6.8
		c9.6,0,23.1,1.3,27.8,1.9c0.2,0,0.3,0,0.7,0c1.7,0,2.7-1.1,2.7-3.1v-9.4c0-1.9-1-3.2-3-3.7c-8.6-1.8-16.3-3.2-30-3.2
		c-21.4,0-32,8.1-32,24.3c0,9.4,5.9,17.5,14.1,22.3l23.1,13.6c5.4,3.2,7.4,5.2,7.4,8.3c0,4.4-1.5,7.8-11.9,7.8
		c-5,0-20.2-0.8-28.3-1.8c-0.2,0-0.3,0-0.7,0c-1.7,0-2.9,1.3-2.9,2.6v9.7c0,1.9,1.2,3.2,3.2,3.7c9.4,2.4,23.6,3.2,30.1,3.2
		C243.5,128.6,254.4,117.5,254.4,103.4L254.4,103.4z"/>
	<path class="st1" d="M352,38.8c0-1.5-1.3-2.7-3-2.7h-17.2c-1.7,0-3,1.3-3.4,2.7l-18.2,69.6c0,0,0,0-0.5,0c-0.2,0-0.5,0-0.8,0h-0.2
		c-1,0-1.7-0.8-2.4-3.6l-17-65.8c-0.3-1.5-1.7-2.9-3.2-2.9h-17c-2.2,0-3.2,1-3.2,2.6c0,0.3,0,0.6,0.2,1.1l22,74.1
		c3.7,12.3,9.8,13.4,14.6,13.4h2.5l-1.3,4.9c-2.4,8.4-6.1,10.4-13.3,10.4c-4.7,0-14.3-0.8-19-1c-0.2,0-0.2,0-0.3,0
		c-1.9,0-3.4,1.1-3.4,2.9v10.4c0,1.6,1.7,2.3,3.5,2.7c3.9,1.1,12.3,2.1,17.8,2.1c22.9,0,29.1-7.8,34.3-25.4l28.1-94.5
		C352,39.5,352,39.2,352,38.8L352,38.8z"/>
	<path class="st1" d="M445.8,88V75.6c0-25.2-13.1-40.6-40.2-40.6c-4,0-9.9,0.3-16.2,1.1V7.5c0-1.8-1.5-3.2-3.4-3.2h-15.5
		c-1.9,0-3.4,1.5-3.4,3.2v112.6c0,2.4,0.7,3.4,4.5,4.4c10.4,2.6,23.1,4.2,33.8,4.2C432.7,128.6,445.8,113.3,445.8,88L445.8,88z
		 M423.6,88c0,13.3-3.5,23.1-18,23.1c-6.1,0-13-0.5-16.2-1.1V53.6c4.7-0.6,12.1-1.1,16.2-1.1c14.5,0,18,9.9,18,23.1V88L423.6,88z"/>
	<path class="st0" d="M757.7,3.6c0,0-7.1,0-11.4,7.1l-3.6,6.1c0,0-4.3,7.1,2.8,7.1h8.9c0,0,7.1,0,11.4-7.1l3.6-6.1
		c0,0,4.3-7.1-2.8-7.1H757.7"/>
	<path class="st0" d="M657.3,122.3v-10.5c0-1.6-1.3-2.4-3-2.4c-0.2,0-0.3,0-0.5,0c-6.7,0.8-10.8,1.1-21.7,1.1
		c-7.9,0-16.2-4.4-16.2-21.2v-15c0-16.8,8.2-21.2,16.2-21.2c10.9,0,15,0.3,21.7,1.1c0.2,0,0.3,0,0.5,0c1.7,0,3-0.8,3-2.4V41.3
		c0-2.6-0.7-3.6-3.5-4.2c-3.9-1-11.4-2.1-21.7-2.1c-21.9,0-38.4,12.9-38.4,39.3v15c0,26.4,16.5,39.3,38.4,39.3
		c10.3,0,17.8-1.1,21.7-2.1C656.6,125.9,657.3,124.9,657.3,122.3"/>
	<path class="st0" d="M755.2,125.2c0-0.5-0.2-0.8-0.3-1.1l-30.6-44L752,39.3c0.3-0.5,0.5-1,0.5-1.5c0-1-0.7-1.8-2-1.8h-17.3
		c-1.9,0-2.7,0.3-4.5,3.2l-15.8,25.2l-17-25.2c-1.7-2.4-2.5-3.2-4.4-3.2h-19.2c-1.5,0-2.7,1.1-2.7,2.3c0,0.3,0.2,0.6,0.3,1
		l28.4,40.9l-30.1,43.8c-0.3,0.5-0.5,1-0.5,1.5c0,1,0.7,1.8,2,1.8H687c1.9,0,2.7-0.5,4.5-3.2l18.2-28.5l19.2,28.5
		c1.9,2.7,2.7,3.2,4.5,3.2h19.2C754,127.3,755.2,126.4,755.2,125.2L755.2,125.2z"/>
	<path class="st1" d="M487.5,21.7V7.5c0-1.8-1.5-3.2-3.4-3.2h-16.3c-1.9,0-3.5,1.5-3.5,3.2v14.2c0,1.8,1.7,3.2,3.5,3.2h16.3
		C486,24.9,487.5,23.5,487.5,21.7L487.5,21.7z"/>
	<path class="st1" d="M487,123.9V39.3c0-1.8-1.5-3.2-3.4-3.2h-15.5c-1.9,0-3.4,1.5-3.4,3.2v84.6c0,1.8,1.5,3.4,3.4,3.4h15.5
		C485.5,127.3,487,125.7,487,123.9L487,123.9z"/>
	<path class="st1" d="M562.4,124.6v-10.2c0-1.6-1.3-2.4-3.5-2.4H550c-6.1,0-6.6-1-6.6-9.1V52.1h15.1c1.9,0,3.4-1.5,3.4-3.2v-9.5
		c0-1.8-1.5-3.2-3.4-3.2h-15.1V19.4c0-1.6-1.2-2.4-2.7-2.4c-0.2,0-0.5,0-0.7,0l-15.7,2.6c-1.9,0.3-3.4,1.5-3.4,3.2v13.3h-15.8
		c-1.9,0-3.4,1.5-3.4,3.2v7.3c0,1.8,1.5,2.9,3.4,3.2l15.8,2.3v50.8c0,21.7,7.7,25.7,26.8,25.7c3.7,0,7.4-0.5,11.4-1.1
		C561.4,127.2,562.4,126.2,562.4,124.6L562.4,124.6z"/>
	<g>
		<path class="st0" d="M382.8,159.5h-2c-0.5,0-0.9-0.2-1-0.5l-9.8-18.6c0-0.1-0.1-0.1-0.1-0.1c0,0,0,0,0,0.1v18.5
			c0,0.3-0.3,0.6-0.6,0.6h-1.6c-0.3,0-0.6-0.1-0.6-0.4v-22.2c0-0.5,0.4-0.9,0.9-0.9h1.7c0.9,0,1,0.2,1.3,0.6l9.7,18.5l0.1,0.1
			c0,0,0-0.1,0-0.1v-18.5c0-0.3,0.3-0.6,0.6-0.6h1.7c0.3,0,0.6,0.3,0.6,0.6v22C383.8,159.1,383.3,159.5,382.8,159.5z"/>
		<path class="st0" d="M402.1,138.4H396v20.4c0,0.3-0.2,0.6-0.6,0.6h-1.7c-0.3,0-0.6-0.3-0.6-0.6v-20.4h-6.2c-0.3,0-0.6-0.2-0.6-0.5
			v-1.4c0-0.3,0.3-0.6,0.6-0.6h15.2c0.3,0,0.6,0.2,0.6,0.6v1.4C402.7,138.2,402.5,138.4,402.1,138.4z"/>
		<path class="st0" d="M420.8,138.4h-6.2v20.4c0,0.3-0.2,0.6-0.6,0.6h-1.7c-0.3,0-0.6-0.3-0.6-0.6v-20.4h-6.2
			c-0.3,0-0.6-0.2-0.6-0.5v-1.4c0-0.3,0.3-0.6,0.6-0.6h15.2c0.3,0,0.6,0.2,0.6,0.6v1.4C421.4,138.2,421.1,138.4,420.8,138.4z"/>
		<path class="st0" d="M439.2,159.7c-2.4,0-4.8-0.2-5.8-0.3c-0.4-0.1-0.7-0.3-0.7-0.8v-21.7c0-0.4,0.3-0.7,0.7-0.8
			c0.9-0.2,3.4-0.3,5.8-0.3c5.9,0,9.6,3,9.6,9.8v4.3C448.8,156.6,445.1,159.7,439.2,159.7z M445.9,145.6c0-5.7-2.9-7.4-6.7-7.4
			c-1.5,0-2.5,0-3.5,0.1v18.9c1,0.1,2,0.1,3.5,0.1c3.8,0,6.7-1.7,6.7-7.4V145.6z"/>
		<path class="st0" d="M468.5,159.5h-1.9c-0.3,0-0.5-0.2-0.5-0.5l-2.1-7.3h-8.2l-2,7.3c-0.1,0.3-0.3,0.5-0.6,0.5h-1.9
			c-0.3,0-0.5-0.2-0.5-0.5c0-0.1,0-0.2,0-0.2l5.9-20.6c0.5-1.9,2-2.4,3.2-2.4c1.2,0,2.7,0.4,3.2,2.4l5.9,20.6c0,0.1,0,0.2,0,0.2
			C469,159.2,468.8,159.5,468.5,159.5z M460.5,138.8c-0.1-0.3-0.3-0.6-0.6-0.6c-0.3,0-0.5,0.2-0.6,0.6l-2.9,10.4h7L460.5,138.8z"/>
		<path class="st0" d="M484,138.4h-6.2v20.4c0,0.3-0.2,0.6-0.6,0.6h-1.7c-0.3,0-0.6-0.3-0.6-0.6v-20.4h-6.2c-0.3,0-0.6-0.2-0.6-0.5
			v-1.4c0-0.3,0.3-0.6,0.6-0.6H484c0.3,0,0.6,0.2,0.6,0.6v1.4C484.6,138.2,484.4,138.4,484,138.4z"/>
		<path class="st0" d="M501.5,159.5h-1.9c-0.3,0-0.5-0.2-0.5-0.5l-2.1-7.3h-8.2l-2,7.3c-0.1,0.3-0.3,0.5-0.6,0.5h-1.9
			c-0.3,0-0.5-0.2-0.5-0.5c0-0.1,0-0.2,0-0.2l5.9-20.6c0.5-1.9,2-2.4,3.2-2.4c1.2,0,2.7,0.4,3.2,2.4l5.9,20.6c0,0.1,0,0.2,0,0.2
			C502,159.2,501.8,159.5,501.5,159.5z M493.5,138.8c-0.1-0.3-0.3-0.6-0.6-0.6c-0.3,0-0.5,0.2-0.6,0.6l-2.9,10.4h7L493.5,138.8z"/>
		<path class="st0" d="M519.4,159.7c-2.1,0-4-0.1-5.2-0.3c-0.7-0.1-1-0.4-1-1.2v-21.1c0-0.7,0.3-1.1,1-1.2c1-0.1,3-0.3,5-0.3
			c5,0,9.3,1.3,9.3,6.1v0.5c0,2.3-1.2,4.1-3.4,5c2.2,0.8,3.5,2.7,3.5,5.1v0.5C528.7,158.3,524.4,159.7,519.4,159.7z M525.7,141.8
			c0-3-2.5-3.7-6.4-3.7c-1.1,0-2.2,0.1-3.1,0.1v7.8h4.9c3.7,0,4.7-1.8,4.7-3.8V141.8z M525.8,152.4c0-2.1-1-4-4.8-4h-4.9v8.7
			c1,0,2.2,0.1,3.3,0.1c3.9,0,6.4-0.9,6.4-4.3V152.4z"/>
		<path class="st0" d="M545.1,159.5h-1.6c-0.3,0-0.6-0.3-0.6-0.6v-0.6c-1.7,1-3.2,1.5-5,1.5c-3.8,0-5.5-2.4-5.5-6.6v-10.4
			c0-0.3,0.3-0.6,0.6-0.6h1.5c0.3,0,0.6,0.3,0.6,0.6v10.4c0,3.2,1.1,4.2,3.5,4.2c1.3,0,2.8-0.5,4.3-1.2v-13.4c0-0.3,0.3-0.6,0.6-0.6
			h1.5c0.3,0,0.6,0.3,0.6,0.6v16.1C545.7,159.2,545.5,159.5,545.1,159.5z"/>
		<path class="st0" d="M555.1,159.7c-1.2,0-3.4-0.1-5-0.5c-0.4-0.1-0.7-0.3-0.7-0.6v-1.1c0-0.3,0.3-0.5,0.6-0.5c0.1,0,0.1,0,0.1,0
			c1.5,0.2,3.8,0.3,5,0.3c2.1,0,3.1-0.5,3.1-2.2c0-0.9-0.6-1.6-2.4-2.6l-3.2-1.9c-1.9-1.2-3.2-2.5-3.2-4.5c0-3.3,2.5-4.2,5.7-4.2
			c1.8,0,3.4,0.2,4.9,0.4c0.4,0.1,0.6,0.3,0.6,0.6v1c0,0.4-0.2,0.5-0.5,0.5c0,0-0.1,0-0.1,0c-1.1-0.1-3.1-0.3-4.9-0.3
			c-1.8,0-2.9,0.2-2.9,1.8c0,0.9,0.7,1.6,2.2,2.4l3.1,1.9c2.6,1.6,3.5,2.9,3.5,4.8C561.1,158.3,558.7,159.7,555.1,159.7z"/>
		<path class="st0" d="M567.4,139.3h-1.6c-0.3,0-0.6-0.3-0.6-0.6v-2.5c0-0.3,0.3-0.6,0.6-0.6h1.6c0.3,0,0.6,0.3,0.6,0.6v2.5
			C568,139,567.7,139.3,567.4,139.3z M567.3,159.5h-1.5c-0.3,0-0.6-0.3-0.6-0.6v-16.1c0-0.3,0.3-0.6,0.6-0.6h1.5
			c0.3,0,0.6,0.3,0.6,0.6v16.1C567.9,159.2,567.6,159.5,567.3,159.5z"/>
		<path class="st0" d="M585.3,159.5h-1.5c-0.3,0-0.6-0.3-0.6-0.6v-10.4c0-3.2-1.1-4.2-3.5-4.2c-1.3,0-2.8,0.5-4.3,1.2v13.3
			c0,0.3-0.3,0.6-0.6,0.6h-1.5c-0.3,0-0.6-0.3-0.6-0.6v-16.1c0-0.3,0.3-0.6,0.6-0.6h1.6c0.3,0,0.6,0.3,0.6,0.6v0.6
			c1.7-1,3.2-1.5,5-1.5c3.8,0,5.5,2.4,5.5,6.6v10.4C585.9,159.2,585.6,159.5,585.3,159.5z"/>
		<path class="st0" d="M603.1,151.6h-10.6v0.4c0,3.8,1.5,5.2,4.4,5.2c1.8,0,4.2-0.1,5.6-0.3c0.1,0,0.1,0,0.2,0
			c0.3,0,0.5,0.1,0.5,0.4v1.1c0,0.4-0.1,0.6-0.6,0.7c-1.8,0.3-3.5,0.5-5.7,0.5c-3.6,0-7.2-1.7-7.2-7.6v-2.8c0-4.5,2.5-7.4,7-7.4
			c4.6,0,7,2.9,7,7.4v1.7C603.7,151.4,603.4,151.6,603.1,151.6z M600.8,149.2c0-3.6-1.4-5-4.1-5c-2.7,0-4.2,1.6-4.2,5v0.3h8.4V149.2
			z"/>
		<path class="st0" d="M612.6,159.7c-1.2,0-3.4-0.1-5-0.5c-0.4-0.1-0.7-0.3-0.7-0.6v-1.1c0-0.3,0.3-0.5,0.6-0.5c0.1,0,0.1,0,0.1,0
			c1.5,0.2,3.8,0.3,5,0.3c2.1,0,3.1-0.5,3.1-2.2c0-0.9-0.6-1.6-2.4-2.6l-3.2-1.9c-1.9-1.2-3.2-2.5-3.2-4.5c0-3.3,2.5-4.2,5.7-4.2
			c1.8,0,3.4,0.2,4.9,0.4c0.4,0.1,0.6,0.3,0.6,0.6v1c0,0.4-0.2,0.5-0.5,0.5c0,0-0.1,0-0.1,0c-1.1-0.1-3.1-0.3-4.9-0.3
			s-2.9,0.2-2.9,1.8c0,0.9,0.7,1.6,2.2,2.4l3.1,1.9c2.6,1.6,3.5,2.9,3.5,4.8C618.5,158.3,616.1,159.7,612.6,159.7z"/>
		<path class="st0" d="M627.3,159.7c-1.2,0-3.4-0.1-5-0.5c-0.4-0.1-0.7-0.3-0.7-0.6v-1.1c0-0.3,0.3-0.5,0.6-0.5c0.1,0,0.1,0,0.1,0
			c1.5,0.2,3.8,0.3,5,0.3c2.1,0,3.1-0.5,3.1-2.2c0-0.9-0.6-1.6-2.4-2.6l-3.2-1.9c-1.9-1.2-3.2-2.5-3.2-4.5c0-3.3,2.5-4.2,5.7-4.2
			c1.8,0,3.4,0.2,4.9,0.4c0.4,0.1,0.6,0.3,0.6,0.6v1c0,0.4-0.2,0.5-0.5,0.5c0,0-0.1,0-0.1,0c-1.1-0.1-3.1-0.3-4.9-0.3
			s-2.9,0.2-2.9,1.8c0,0.9,0.7,1.6,2.2,2.4l3.1,1.9c2.6,1.6,3.5,2.9,3.5,4.8C633.2,158.3,630.8,159.7,627.3,159.7z"/>
		<path class="st0" d="M650.6,159.7c-2.2,0-3.9-0.2-5.3-0.4c-0.5-0.1-0.6-0.2-0.6-0.6v-1.3c0-0.3,0.3-0.5,0.5-0.5c0,0,0.1,0,0.1,0
			c1.5,0.1,3.8,0.2,5.2,0.2c3.8,0,4.8-1.5,4.8-3.7c0-1.6-0.9-2.5-3.8-4.2l-3.1-1.9c-2.9-1.8-4.4-3.4-4.4-5.9c0-3.8,2.8-5.6,7.6-5.6
			c1.9,0,4.3,0.2,5.5,0.4c0.3,0.1,0.5,0.2,0.5,0.5v1.4c0,0.3-0.2,0.5-0.5,0.5c0,0,0,0-0.1,0c-1.4-0.1-3.6-0.2-5.4-0.2
			c-3.3,0-4.6,0.7-4.6,3c0,1.5,1,2.4,3.4,3.8l2.9,1.7c3.7,2.2,5,3.9,5,6.5C658.4,156.4,656.9,159.7,650.6,159.7z"/>
		<path class="st0" d="M668.6,159.7c-4.6,0-7-3.1-7-7.7v-2.4c0-4.6,2.4-7.7,7-7.7c4.7,0,7.1,3.1,7.1,7.7v2.4
			C675.7,156.6,673.3,159.7,668.6,159.7z M672.9,149.6c0-3.2-1.3-5.3-4.3-5.3c-2.9,0-4.2,2-4.2,5.3v2.4c0,3.2,1.3,5.3,4.2,5.3
			c2.9,0,4.3-2,4.3-5.3V149.6z"/>
		<path class="st0" d="M682,159.5h-1.6c-0.3,0-0.6-0.3-0.6-0.6v-22.6c0-0.3,0.2-0.6,0.6-0.6h1.6c0.3,0,0.6,0.3,0.6,0.6v22.6
			C682.5,159.1,682.3,159.5,682,159.5z"/>
		<path class="st0" d="M699.9,159.5h-1.6c-0.3,0-0.6-0.3-0.6-0.6v-0.6c-1.7,1-3.2,1.5-5,1.5c-3.8,0-5.5-2.4-5.5-6.6v-10.4
			c0-0.3,0.3-0.6,0.6-0.6h1.5c0.3,0,0.6,0.3,0.6,0.6v10.4c0,3.2,1.1,4.2,3.5,4.2c1.3,0,2.8-0.5,4.3-1.2v-13.4c0-0.3,0.3-0.6,0.6-0.6
			h1.6c0.3,0,0.6,0.3,0.6,0.6v16.1C700.5,159.2,700.2,159.5,699.9,159.5z"/>
		<path class="st0" d="M713.5,159.5c-0.6,0.1-1.5,0.2-2.1,0.2c-2.9,0-4.3-0.8-4.3-4.2v-11l-3.1-0.3c-0.3,0-0.6-0.2-0.6-0.6v-0.9
			c0-0.3,0.3-0.6,0.6-0.6h3.1V139c0-0.3,0.2-0.6,0.6-0.6l1.6-0.3c0,0,0.1,0,0.1,0c0.3,0,0.5,0.2,0.5,0.5v3.4h3.4
			c0.3,0,0.6,0.3,0.6,0.6v1.1c0,0.3-0.3,0.6-0.6,0.6h-3.4v11c0,1.7,0.4,2,1.7,2h1.8c0.4,0,0.7,0.1,0.7,0.4v1.1
			C714,159.3,713.9,159.5,713.5,159.5z"/>
		<path class="st0" d="M719.5,139.3h-1.6c-0.3,0-0.6-0.3-0.6-0.6v-2.5c0-0.3,0.3-0.6,0.6-0.6h1.6c0.3,0,0.6,0.3,0.6,0.6v2.5
			C720.2,139,719.9,139.3,719.5,139.3z M719.5,159.5H718c-0.3,0-0.6-0.3-0.6-0.6v-16.1c0-0.3,0.3-0.6,0.6-0.6h1.5
			c0.3,0,0.6,0.3,0.6,0.6v16.1C720.1,159.2,719.8,159.5,719.5,159.5z"/>
		<path class="st0" d="M731.3,159.7c-4.7,0-7-3.1-7-7.7v-2.4c0-4.6,2.4-7.7,7-7.7c4.6,0,7.1,3.1,7.1,7.7v2.4
			C738.3,156.6,735.9,159.7,731.3,159.7z M735.5,149.6c0-3.2-1.3-5.3-4.3-5.3c-2.9,0-4.2,2-4.2,5.3v2.4c0,3.2,1.3,5.3,4.2,5.3
			c2.9,0,4.3-2,4.3-5.3V149.6z"/>
		<path class="st0" d="M754.7,159.5h-1.5c-0.3,0-0.6-0.3-0.6-0.6v-10.4c0-3.2-1.1-4.2-3.5-4.2c-1.3,0-2.8,0.5-4.3,1.2v13.3
			c0,0.3-0.3,0.6-0.6,0.6h-1.5c-0.3,0-0.6-0.3-0.6-0.6v-16.1c0-0.3,0.3-0.6,0.6-0.6h1.6c0.3,0,0.6,0.3,0.6,0.6v0.6
			c1.7-1,3.2-1.5,5-1.5c3.8,0,5.5,2.4,5.5,6.6v10.4C755.4,159.2,755.1,159.5,754.7,159.5z"/>
		<path class="st0" d="M764.8,159.7c-1.2,0-3.4-0.1-5-0.5c-0.4-0.1-0.7-0.3-0.7-0.6v-1.1c0-0.3,0.3-0.5,0.6-0.5c0.1,0,0.1,0,0.1,0
			c1.5,0.2,3.8,0.3,5,0.3c2.1,0,3.1-0.5,3.1-2.2c0-0.9-0.6-1.6-2.4-2.6l-3.2-1.9c-1.9-1.2-3.2-2.5-3.2-4.5c0-3.3,2.5-4.2,5.7-4.2
			c1.8,0,3.4,0.2,4.9,0.4c0.4,0.1,0.6,0.3,0.6,0.6v1c0,0.4-0.2,0.5-0.5,0.5c0,0-0.1,0-0.1,0c-1.1-0.1-3.1-0.3-4.9-0.3
			c-1.8,0-2.9,0.2-2.9,1.8c0,0.9,0.7,1.6,2.2,2.4l3.1,1.9c2.6,1.6,3.5,2.9,3.5,4.8C770.7,158.3,768.3,159.7,764.8,159.7z"/>
	</g>
	<g>
		<defs>
			<rect id="SVGID_1_" x="712.6" y="68.1" width="7.5" height="4.9"/>
		</defs>
		<clipPath id="SVGID_2_">
			<use xlink:href="#SVGID_1_"  style="overflow:visible;"/>
		</clipPath>
		<path class="st2" d="M716.2,68.1c0,0-1.2,0-2,1.2l-1.5,2.4c0,0-0.7,1.2,0.5,1.2h3.1c0,0,1.2,0,2-1.2l1.5-2.4c0,0,0.7-1.2-0.5-1.2
			H716.2z"/>
	</g>
</g>
</svg>
