<svg xmlns="http://www.w3.org/2000/svg" version="1.1" xmlns:xlink="http://www.w3.org/1999/xlink" width="80" height="80" x="0" y="0" viewBox="0 0 512 512" style="enable-background:new 0 0 512 512" xml:space="preserve" class="">              <g>              <circle xmlns="http://www.w3.org/2000/svg" style="" cx="66.06" cy="222.97" r="66.06" fill="#965a50" data-original="#965a50"></circle>              <circle xmlns="http://www.w3.org/2000/svg" style="" cx="66.06" cy="222.97" r="41.29" fill="#ebc9a0" data-original="#ebc9a0"></circle>              <circle xmlns="http://www.w3.org/2000/svg" style="" cx="445.94" cy="222.97" r="66.06" fill="#965a50" data-original="#965a50"></circle>              <circle xmlns="http://www.w3.org/2000/svg" style="" cx="445.94" cy="222.97" r="41.29" fill="#ebc9a0" data-original="#ebc9a0"></circle>              <path xmlns="http://www.w3.org/2000/svg" style="" d="M442.589,262.049c-8.366-14.436-13.169-30.655-13.169-47.34v-0.001  c0-72.373-44.364-134.33-107.355-160.318V24.774l-41.29,16.516l-8.258-33.032c-21.781,7.261-40.361,22.498-54.356,37.298  c-77.557,17.283-135.58,86.39-135.58,169.154c0,16.685-4.803,32.904-13.169,47.34c-12.72,21.948-19.863,46.482-19.863,72.402  c0,93.496,92.431,169.29,206.452,169.29s206.452-75.794,206.452-169.29C462.452,308.532,455.308,283.997,442.589,262.049z" fill="#af6e5a" data-original="#af6e5a"></path>              <path xmlns="http://www.w3.org/2000/svg" style="" d="M140.387,364.043c0-30.24,7.143-58.864,19.863-84.469c8.367-16.841,13.169-35.764,13.169-55.23  c0-84.035,43.969-155.956,106.493-186.502l-7.396-29.584c-21.781,7.261-40.361,22.498-54.357,37.298  C140.604,62.839,82.581,131.946,82.581,214.71c0,16.685-4.802,32.904-13.169,47.34c-12.72,21.948-19.863,46.482-19.863,72.402  c0,75.465,60.232,139.37,143.415,161.223C160.282,460.734,140.387,414.619,140.387,364.043z" fill="#965a50" data-original="#965a50"></path>              <path xmlns="http://www.w3.org/2000/svg" style="" d="M256,470.71c68.412,0,123.871-44.367,123.871-99.097c0-11.354-2.414-22.245-6.835-32.386  c-6.41-14.707-4.228-31.587,6.07-43.889c13.134-15.691,19.908-36.877,16.333-59.635c-4.91-31.259-30.182-56.486-61.448-61.353  c-23.892-3.719-46.037,3.968-61.903,18.439c-4.51,4.113-10.3,6.17-16.087,6.17c-5.79,0-11.581-2.056-16.091-6.17  c-15.866-14.471-38.011-22.158-61.903-18.439c-31.266,4.866-56.537,30.094-61.448,61.353c-3.575,22.757,3.199,43.943,16.333,59.635  c10.298,12.303,12.48,29.182,6.07,43.889c-4.42,10.142-6.835,21.033-6.835,32.386C132.129,426.342,187.588,470.71,256,470.71z" fill="#faebc8" data-original="#faebc8"></path>                <path xmlns="http://www.w3.org/2000/svg" style="" d="M132.129,371.612c0,18.522,6.468,35.795,17.524,50.625c-5.938-18.411-9.266-37.916-9.266-58.195  c0-30.24,7.143-58.864,19.863-84.469c8.367-16.841,13.169-35.764,13.169-55.23c0-17.307,1.96-34.056,5.468-50.08  c-0.295,0.042-0.583,0.04-0.879,0.086c-31.266,4.866-56.536,30.094-61.448,61.352c-3.575,22.758,3.2,43.944,16.333,59.635  c10.298,12.302,12.481,29.181,6.071,43.889C134.543,349.368,132.129,360.259,132.129,371.612z" fill="#f5dcb4" data-original="#f5dcb4"></path>                <path xmlns="http://www.w3.org/2000/svg" style="" d="M182.319,363.355c-5.001,0-8.941,4.431-8.248,9.384c5.126,36.617,39.853,64.938,81.929,64.938  c42.077,0,76.803-28.321,81.929-64.938c0.693-4.953-3.247-9.384-8.248-9.384H182.319z" fill="#4b3f4e" data-original="#4b3f4e"></path>                <path xmlns="http://www.w3.org/2000/svg" style="" d="M208.417,424.038c13.457,8.563,29.849,13.639,47.583,13.639s34.126-5.076,47.583-13.639  c-5.966-20.666-25.063-35.909-47.583-35.909S214.383,403.371,208.417,424.038z" fill="#e6646e" data-original="#e6646e"></path>                <path xmlns="http://www.w3.org/2000/svg" style="" d="M181.677,272.516L181.677,272.516c-13.682,0-24.774-11.092-24.774-24.774v-8.258  c0-13.682,11.092-24.774,24.774-24.774l0,0c13.682,0,24.774,11.092,24.774,24.774v8.258  C206.452,261.424,195.36,272.516,181.677,272.516z" fill="#4b3f4e" data-original="#4b3f4e"></path>                <path xmlns="http://www.w3.org/2000/svg" style="" d="M181.677,214.71v28.903c0,6.841,5.546,12.387,12.387,12.387s12.387-5.546,12.387-12.387v-4.129  C206.452,225.801,195.36,214.71,181.677,214.71z" fill="#5d5360" data-original="#5d5360"></path>                <circle xmlns="http://www.w3.org/2000/svg" style="" cx="181.68" cy="231.23" r="8.258" fill="#ffffff" data-original="#ffffff"></circle>                <path xmlns="http://www.w3.org/2000/svg" style="" d="M330.323,272.516L330.323,272.516c-13.682,0-24.774-11.092-24.774-24.774v-8.258  c0-13.682,11.092-24.774,24.774-24.774l0,0c13.682,0,24.774,11.092,24.774,24.774v8.258  C355.097,261.424,344.005,272.516,330.323,272.516z" fill="#4b3f4e" data-original="#4b3f4e"></path>                <path xmlns="http://www.w3.org/2000/svg" style="" d="M330.323,214.71v28.903c0,6.841,5.546,12.387,12.387,12.387s12.387-5.546,12.387-12.387v-4.129  C355.097,225.801,344.005,214.71,330.323,214.71z" fill="#5d5360" data-original="#5d5360"></path>                <circle xmlns="http://www.w3.org/2000/svg" style="" cx="330.32" cy="231.23" r="8.258" fill="#ffffff" data-original="#ffffff"></circle>                <path xmlns="http://www.w3.org/2000/svg" style="" d="M256,437.677c2.792,0,5.538-0.169,8.258-0.415v-16.101c0-4.56-3.694-8.258-8.258-8.258  s-8.258,3.698-8.258,8.258v16.101C250.462,437.508,253.208,437.677,256,437.677z" fill="#ff8087" data-original="#ff8087"></path>              </g>            </svg>