<svg width="180.000000pt" height="180.000000pt" viewBox="0 0 180.000000 180.000000" xmlns="http://www.w3.org/2000/svg">
  <g transform="translate(0.000000,180.000000) scale(0.100000,-0.100000)" fill="#fefefe" stroke="none">
    <path d="M0 900 l0 -900 900 0 900 0 0 900 0 900 -900 0 -900 0 0 -900z m840
616 l145 -24 130 -17 130 -17 53 -11 54 -11 24 -19 24 -18 0 -32 0 -32 -15
-85 -15 -85 -40 -252 -39 -251 -7 -124 -7 -123 -8 -22 -8 -22 -23 -14 -23 -15
-337 -27 -337 -28 -15 6 -15 6 -15 23 -14 23 -36 440 -36 440 -6 60 -5 60 20
22 20 21 23 8 22 7 19 23 18 24 13 0 13 0 18 20 18 20 15 0 14 0 30 25 30 25
11 0 12 0 145 -24z" />
  </g>
  <g transform="translate(0.000000,180.000000) scale(0.100000,-0.100000)" fill="#8bc34a" stroke="none">
    <path d="M945 1443 l-40 -3 -195 -15 -195 -15 -42 -6 -43 -5 -15 -15 -15 -15
0 -60 0 -61 10 -116 9 -117 28 -345 28 -344 21 -25 21 -25 362 31 361 31 15
12 15 12 0 50 0 49 -41 482 -40 481 -11 13 -10 13 -92 -2 -91 -1 -40 -4z m2
-322 l42 -19 15 -31 16 -30 0 -34 0 -34 -49 -64 -49 -64 -4 -35 -3 -35 -22 -3
-23 -3 0 40 0 39 35 44 34 43 17 29 16 28 -7 34 -6 33 -22 16 -21 15 -37 0
-37 0 -22 -18 -23 -18 -6 -40 -6 -39 -19 -3 -18 -4 -11 11 -10 10 17 44 17 44
22 20 22 20 30 11 30 10 20 1 20 1 42 -19z m-17 -440 l0 -30 -20 -6 -20 -6
-10 6 -10 6 0 23 0 23 7 6 6 7 24 0 23 0 0 -29z" />
  </g>
  <g transform="translate(0.000000,180.000000) scale(0.100000,-0.100000)" fill="#495d67" stroke="none">
    <path d="M648 1539 l-18 -10 0 -14 0 -15 -31 0 -31 0 -5 -18 -4 -18 -31 -10
-31 -9 -11 -17 -10 -17 5 -5 5 -6 202 17 202 17 0 23 0 23 40 0 40 0 0 13 0
13 -142 22 -143 22 -10 0 -10 -1 -17 -10z" />
    <path d="M1160 1448 l0 -11 15 -17 15 -16 19 -250 20 -249 12 -162 12 -163 14
0 13 0 0 130 0 130 15 0 15 0 0 25 0 25 13 0 13 0 27 173 27 172 11 77 11 78
-16 25 -16 25 -30 0 -29 0 -6 9 -5 10 -75 0 -75 0 0 -11z" />
  </g>
  <g transform="translate(0.000000,180.000000) scale(0.100000,-0.100000)" fill="#ced8d8" stroke="none">
    <path d="M628 1520 l-33 -29 17 -1 17 0 10 19 10 19 17 6 16 6 66 -10 67 -10
25 -6 25 -5 -10 9 -10 10 -72 11 -72 11 -20 0 -21 0 -32 -30z" />
    <path d="M885 1512 l20 -9 45 -7 45 -7 -10 9 -10 10 -55 6 -55 6 20 -8z" />
    <path d="M555 1480 l-18 -20 -13 0 -13 0 -18 -24 -19 -23 -22 -7 -23 -8 -19
-21 -20 -21 0 -37 0 -38 10 -6 10 -6 0 48 0 49 12 12 12 12 22 0 22 0 16 25
16 25 25 6 25 6 0 10 0 11 18 13 17 13 -11 1 -11 0 -18 -20z" />
    <path d="M1010 1490 l0 -10 26 0 25 0 -6 10 -6 10 -20 0 -19 0 0 -10z" />
    <path d="M1070 1482 l0 -10 23 -6 22 -6 85 -6 85 -6 25 -8 25 -8 28 -6 27 -6
0 -15 0 -15 10 0 10 0 0 8 0 9 -18 16 -19 17 -49 14 -49 14 -71 6 -71 6 -31 6
-32 7 0 -11z" />
    <path d="M613 1413 l17 -5 13 5 12 5 -30 0 -30 0 18 -5z" />
    <path d="M508 1403 l13 -5 6 6 6 6 -19 -1 -19 -1 13 -5z" />
    <path d="M1397 1350 l-5 -15 -22 -150 -21 -150 -6 -25 -6 -25 10 10 10 10 27
168 28 167 -5 13 -5 12 -5 -15z" />
    <path d="M400 1188 l0 -47 10 -6 10 -6 0 38 0 38 -10 15 -10 15 0 -47z" />
    <path d="M821 1136 l-34 -12 -23 -27 -23 -27 -12 -39 -12 -39 7 -17 6 -16 32
3 33 3 6 39 6 40 23 18 22 18 28 0 28 0 20 -17 21 -18 6 -25 5 -25 -17 -26
-18 -26 -32 -43 -33 -43 0 -49 0 -49 33 3 32 3 3 35 4 35 49 64 49 64 0 44 0
44 -16 30 -15 31 -42 19 -42 19 -30 -1 -30 -1 -34 -12z" />
    <path d="M410 1063 l0 -52 10 -6 10 -6 0 43 0 43 -10 15 -10 15 0 -52z" />
    <path d="M421 943 l-1 -52 10 -6 10 -6 -1 18 0 18 -8 40 -9 40 -1 -52z" />
    <path d="M1337 967 l-7 -19 0 -16 0 -16 11 11 11 11 -4 23 -3 24 -8 -18z" />
    <path d="M1320 879 l0 -20 10 6 10 6 0 15 0 14 -10 0 -10 0 0 -21z" />
    <path d="M430 827 l0 -46 11 -6 11 -7 -8 48 -7 49 -3 4 -4 4 0 -46z" />
    <path d="M1310 814 l0 -25 10 6 10 6 0 20 0 19 -10 0 -10 0 0 -26z" />
    <path d="M1291 711 l-11 -70 0 -46 0 -46 8 5 9 5 7 83 6 83 6 28 6 27 -9 0
-10 0 -12 -69z" />
    <path d="M440 707 l0 -46 11 -6 11 -7 -8 48 -7 49 -3 4 -4 4 0 -46z" />
    <path d="M867 713 l-7 -6 0 -34 0 -34 15 -5 15 -6 25 6 25 6 0 40 0 40 -33 0
-34 0 -6 -7z" />
    <path d="M450 587 l0 -46 11 -6 11 -7 -8 48 -7 49 -3 4 -4 4 0 -46z" />
    <path d="M1250 605 l0 -25 9 0 8 0 -5 25 -4 25 -4 0 -4 0 0 -25z" />
    <path d="M1269 523 l-1 -8 -3 -68 -3 -68 -12 -14 -12 -15 -19 0 -19 0 0 -10 0
-10 14 0 15 0 28 24 28 24 3 76 4 76 -11 0 -11 0 -1 -7z" />
    <path d="M460 448 l0 -37 10 -6 10 -6 0 28 0 28 -10 15 -10 15 0 -37z" />
    <path d="M471 349 l-1 -16 21 -27 20 -26 17 1 17 0 -21 11 -21 10 -16 31 -16
32 0 -16z" />
    <path d="M1070 330 l-15 -10 37 0 37 0 6 10 6 10 -28 0 -28 0 -15 -10z" />
    <path d="M935 320 l-30 -8 52 -1 52 -1 6 10 6 10 -28 -1 -28 -1 -30 -8z" />
    <path d="M820 310 l-35 -7 47 -2 47 -1 6 10 6 10 -18 -1 -18 -2 -35 -7z" />
    <path d="M700 300 l-35 -7 47 -2 47 -1 6 10 6 10 -18 -1 -18 -2 -35 -7z" />
    <path d="M580 290 l-35 -7 52 -2 52 -1 6 10 6 10 -23 -1 -23 -2 -35 -7z" />
  </g>
  <g transform="translate(0.000000,180.000000) scale(0.100000,-0.100000)" fill="#74858d" stroke="none">
    <path d="M637 1522 l-17 -19 0 -6 0 -7 21 0 21 0 -11 14 -12 14 18 11 18 10
-11 1 -11 0 -16 -18z" />
    <path d="M718 1533 l13 -5 6 6 6 6 -19 -1 -19 -1 13 -5z" />
    <path d="M783 1523 l7 -6 7 6 6 7 -13 0 -13 0 6 -7z" />
    <path d="M848 1513 l13 -5 6 6 6 6 -19 -1 -19 -1 13 -5z" />
    <path d="M908 1503 l13 -5 6 6 6 6 -19 -1 -19 -1 13 -5z" />
    <path d="M558 1480 l-23 -20 -25 -21 -25 -21 25 16 24 16 174 0 173 0 -6 -10
-6 -10 20 0 20 0 52 11 53 11 15 15 14 15 -14 9 -14 10 -44 -6 -44 -5 -29 0
-29 0 6 -10 6 -10 -157 0 -156 0 12 15 12 15 -5 0 -5 0 -24 -20z" />
    <path d="M715 1490 l6 -10 55 0 55 0 -6 10 -6 10 -55 0 -55 0 6 -10z" />
    <path d="M1150 1455 l0 -14 35 6 35 6 25 -17 25 -16 0 -395 0 -395 9 0 9 0 6
23 5 23 6 59 7 60 8 25 8 25 6 33 6 33 -11 -7 -11 -6 7 153 8 154 -9 -8 -9 -8
-11 -172 -11 -172 -2 275 -1 275 -14 28 -15 27 19 0 18 0 21 -27 20 -28 1 19
0 18 20 -5 20 -5 -5 7 -4 8 -53 11 -53 11 -57 5 -58 5 0 -14z" />
    <path d="M765 1430 l-6 -10 30 0 31 0 0 10 0 10 -24 0 -25 0 -6 -10z" />
    <path d="M1173 1427 l7 -19 0 -9 0 -9 10 0 10 0 0 14 0 14 -17 13 -17 14 7
-18z" />
    <path d="M645 1420 l-6 -10 30 0 31 0 0 10 0 10 -24 0 -25 0 -6 -10z" />
    <path d="M525 1410 l-6 -10 30 0 31 0 0 10 0 10 -24 0 -25 0 -6 -10z" />
    <path d="M1390 1408 l0 -17 10 -6 10 -6 0 8 0 8 -10 15 -10 15 0 -17z" />
    <path d="M1328 1364 l-8 -7 0 -76 0 -75 10 10 11 11 -3 72 -3 73 -7 -8z" />
    <path d="M1190 1321 l0 -41 10 0 10 0 0 34 0 35 -10 6 -10 6 0 -40z" />
    <path d="M1394 1346 l-6 -15 4 -18 4 -18 5 33 6 32 -4 0 -4 0 -5 -14z" />
    <path d="M1384 1275 l-6 -14 4 -13 5 -13 5 28 5 27 -4 0 -4 0 -5 -15z" />
    <path d="M1200 1191 l0 -51 10 0 10 0 0 44 0 45 -10 6 -10 6 0 -50z" />
    <path d="M1371 1194 l1 -19 5 13 5 13 -6 6 -6 6 1 -19z" />
    <path d="M1361 1124 l1 -19 5 13 5 13 -6 6 -6 6 1 -19z" />
    <path d="M1210 1061 l0 -51 10 0 10 0 0 44 0 45 -10 6 -10 6 0 -50z" />
    <path d="M1351 1064 l1 -19 5 13 5 13 -6 6 -6 6 1 -19z" />
    <path d="M1341 1004 l1 -19 5 13 5 13 -6 6 -6 6 1 -19z" />
    <path d="M1220 936 l0 -46 10 0 10 0 0 39 0 40 -10 6 -10 6 0 -45z" />
    <path d="M1331 944 l1 -19 5 13 5 13 -6 6 -6 6 1 -19z" />
    <path d="M1230 801 l0 -31 10 0 10 0 0 24 0 25 -10 6 -10 6 0 -30z" />
    <path d="M1240 681 l0 -31 10 0 10 0 0 24 0 25 -10 6 -10 6 0 -30z" />
    <path d="M1263 593 l-13 -5 0 -24 0 -24 15 0 15 0 0 30 0 30 -2 -1 -3 -1 -12
-5z" />
  </g>
  <g transform="translate(0.000000,180.000000) scale(0.100000,-0.100000)" fill="#92a1a5" stroke="none">
    <path d="M650 1535 l0 -5 5 0 5 0 0 5 0 5 -5 0 -5 0 0 -5z" />
    <path d="M733 1533 l7 -6 7 6 6 7 -13 0 -13 0 6 -7z" />
    <path d="M798 1523 l13 -5 6 6 6 6 -19 -1 -19 -1 13 -5z" />
    <path d="M863 1513 l7 -6 7 6 6 7 -13 0 -13 0 6 -7z" />
    <path d="M600 1499 l-25 -7 48 -1 47 -1 0 4 0 4 -22 4 -23 4 -25 -7z" />
    <path d="M923 1503 l7 -6 7 6 6 7 -13 0 -13 0 6 -7z" />
    <path d="M698 1493 l22 -4 18 4 17 5 -40 -1 -40 0 23 -4z" />
    <path d="M983 1493 l7 -6 7 6 6 7 -13 0 -13 0 6 -7z" />
    <path d="M807 1483 l33 -4 37 4 38 4 -70 0 -70 0 32 -4z" />
    <path d="M990 1481 l-45 -7 35 -5 35 -4 -80 -17 -80 -16 60 -1 60 0 63 13 63
14 6 6 6 6 -5 5 -6 6 -33 3 -34 4 -45 -7z" />
    <path d="M542 1464 l-13 -14 10 0 10 0 6 11 7 10 -3 4 -4 3 -13 -14z" />
    <path d="M1140 1457 l0 -12 20 -13 20 -12 0 -33 0 -32 10 -15 10 -15 0 33 0
33 -17 32 -17 32 2 8 2 7 -15 0 -15 0 0 -13z" />
    <path d="M1228 1453 l13 -5 6 6 6 6 -19 -1 -19 -1 13 -5z" />
    <path d="M1283 1453 l7 -6 7 6 6 7 -13 0 -13 0 6 -7z" />
    <path d="M1316 1435 l6 -15 4 0 4 0 0 15 0 15 -10 0 -9 0 5 -15z" />
    <path d="M805 1430 l-6 -10 20 0 20 0 6 10 6 10 -20 0 -20 0 -6 -10z" />
    <path d="M1260 1428 l10 -12 0 -434 0 -433 -10 6 -10 6 0 -18 1 -18 14 -25 14
-25 2 25 1 25 -2 445 -2 445 -14 13 -14 12 10 -12z" />
    <path d="M1360 1435 l0 -5 5 0 5 0 0 5 0 5 -5 0 -5 0 0 -5z" />
    <path d="M484 1418 l-7 -11 11 7 12 7 0 5 0 4 -4 0 -5 0 -7 -12z" />
    <path d="M685 1420 l-6 -10 20 0 20 0 6 10 6 10 -20 0 -20 0 -6 -10z" />
    <path d="M565 1410 l-6 -10 20 0 21 0 0 10 0 10 -14 0 -15 0 -6 -10z" />
    <path d="M1333 1365 l0 -50 4 28 4 27 -4 23 -4 22 0 -50z" />
    <path d="M1402 1375 l0 -30 5 18 5 17 -5 13 -5 12 0 -30z" />
    <path d="M1390 1300 l0 -13 7 6 6 7 -6 7 -7 6 0 -13z" />
    <path d="M1190 1268 l0 -33 10 -15 10 -15 0 42 0 42 -10 6 -10 6 0 -33z" />
    <path d="M1323 1225 l0 -70 4 38 4 37 -4 33 -4 32 0 -70z" />
    <path d="M1381 1234 l1 -19 5 13 5 13 -6 6 -6 6 1 -19z" />
    <path d="M1371 1174 l1 -19 5 13 5 13 -6 6 -6 6 1 -19z" />
    <path d="M1200 1131 l0 -30 10 -6 10 -6 0 30 0 30 -10 6 -10 6 0 -30z" />
    <path d="M1360 1110 l0 -13 7 6 6 7 -6 7 -7 6 0 -13z" />
    <path d="M1313 1050 l0 -65 4 33 4 32 -4 33 -4 32 0 -65z" />
    <path d="M1350 1050 l0 -13 7 6 6 7 -6 7 -7 6 0 -13z" />
    <path d="M1210 1006 l0 -25 10 -6 10 -6 0 25 0 25 -10 6 -10 6 0 -25z" />
    <path d="M1340 990 l0 -13 7 6 6 7 -6 7 -7 6 0 -13z" />
    <path d="M1301 851 l-1 -95 10 10 9 9 -8 85 -8 85 -2 -94z" />
    <path d="M1331 924 l1 -19 5 13 5 13 -6 6 -6 6 1 -19z" />
    <path d="M1220 886 l0 -26 10 0 10 0 0 19 0 20 -10 6 -10 6 0 -25z" />
    <path d="M1322 860 l0 -25 5 13 5 12 -5 13 -5 12 0 -25z" />
    <path d="M1230 771 l0 -20 10 -6 10 -6 0 20 0 20 -10 6 -10 6 0 -20z" />
    <path d="M1294 715 l-6 -14 4 -13 5 -13 5 28 5 27 -4 0 -4 0 -5 -15z" />
    <path d="M1240 651 l0 -21 10 0 10 0 0 14 0 15 -10 6 -10 6 0 -20z" />
  </g>
  <g transform="translate(0.000000,180.000000) scale(0.100000,-0.100000)" fill="#a1c87d" stroke="none">
    <path d="M1025 1450 l-6 -10 65 0 66 0 0 10 0 10 -59 0 -60 0 -6 -10z" />
    <path d="M930 1439 l-35 -6 48 -2 47 -1 0 4 0 4 -12 4 -13 4 -35 -7z" />
    <path d="M810 1430 l-35 -7 32 -2 32 -1 6 10 6 10 -3 -1 -3 -2 -35 -7z" />
    <path d="M1165 1430 l6 -10 5 0 5 0 -6 10 -6 10 -5 0 -5 0 6 -10z" />
    <path d="M695 1420 l-30 -8 27 -1 27 -1 6 10 6 10 -3 -1 -3 -1 -30 -8z" />
    <path d="M570 1410 l-25 -8 27 -1 27 -1 6 10 6 10 -8 -1 -8 -1 -25 -8z" />
    <path d="M460 1400 l-25 -8 22 -1 22 -1 6 10 6 10 -3 -1 -3 -1 -25 -8z" />
    <path d="M1182 1380 l0 -35 5 18 4 17 -4 18 -5 17 0 -35z" />
    <path d="M403 1310 l0 -65 4 33 4 32 -4 33 -4 32 0 -65z" />
    <path d="M1193 1285 l0 -60 4 33 4 32 -4 28 -4 27 0 -60z" />
    <path d="M1207 1100 l5 -115 7 -7 7 -8 -8 88 -7 87 -4 35 -4 35 4 -115z" />
    <path d="M413 1165 l0 -50 4 28 4 27 -4 23 -4 22 0 -50z" />
    <path d="M823 1137 l-32 -12 -23 -25 -23 -24 25 21 25 21 40 11 40 11 25 4 25
3 -35 1 -35 0 -32 -11z" />
    <path d="M933 1133 l7 -6 7 6 6 7 -13 0 -13 0 6 -7z" />
    <path d="M986 1103 l17 -17 13 -31 13 -30 1 15 0 15 -20 33 -20 32 -11 0 -10
0 17 -17z" />
    <path d="M423 1045 l0 -50 4 28 4 27 -4 23 -4 22 0 -50z" />
    <path d="M828 1074 l-28 -15 -4 -22 -5 -22 -3 -20 -3 -20 -27 -3 -27 -3 -4 26
-4 25 1 -27 1 -28 35 0 35 0 6 39 6 40 29 23 29 23 -5 0 -5 -1 -27 -15z" />
    <path d="M893 1080 l28 -9 13 -8 12 -8 -19 18 -19 17 -22 -1 -21 -1 28 -8z" />
    <path d="M730 1040 l0 -13 7 6 6 7 -6 7 -7 6 0 -13z" />
    <path d="M950 1030 l0 -13 7 6 6 7 -6 7 -7 6 0 -13z" />
    <path d="M946 973 l-7 -18 12 12 13 13 -6 5 -6 6 -6 -18z" />
    <path d="M1021 980 l-1 -15 -45 -60 -45 -60 0 -5 0 -5 25 30 24 30 27 37 26
37 -5 13 -5 13 -1 -15z" />
    <path d="M890 898 l-30 -41 1 -16 0 -16 9 23 10 23 26 34 26 35 -6 0 -6 0 -30
-42z" />
    <path d="M432 900 l0 -35 5 18 4 17 -4 18 -5 17 0 -35z" />
    <path d="M1220 897 l0 -36 9 -6 10 -5 -6 37 -6 38 -3 4 -4 4 0 -36z" />
    <path d="M921 803 l-1 -31 -12 -5 -13 -5 13 -1 13 -1 5 14 6 15 -5 23 -4 23
-2 -32z" />
    <path d="M442 785 l0 -30 5 18 5 17 -5 13 -5 12 0 -30z" />
    <path d="M1230 781 l0 -30 8 -5 8 -5 -4 35 -4 34 -4 0 -4 0 0 -29z" />
    <path d="M866 712 l-5 -8 34 4 33 4 5 -19 5 -18 1 23 1 22 -34 0 -35 0 -5 -8z" />
    <path d="M452 665 l0 -30 5 18 5 17 -5 13 -5 12 0 -30z" />
    <path d="M864 660 l1 -25 24 -3 23 -4 11 11 11 11 -31 -6 -31 -6 -5 23 -4 24
1 -25z" />
    <path d="M1240 662 l0 -31 10 -6 10 -6 -7 33 -6 33 -3 4 -4 4 0 -31z" />
    <path d="M462 545 l0 -30 5 18 5 17 -5 13 -5 12 0 -30z" />
    <path d="M1251 543 l-1 -32 10 -6 10 -6 -1 13 -1 13 -8 25 -8 25 -1 -32z" />
    <path d="M472 430 l0 -35 5 18 4 17 -4 18 -5 17 0 -35z" />
    <path d="M1261 413 l1 -38 8 25 8 25 1 13 1 12 -10 0 -10 0 1 -37z" />
    <path d="M1245 360 l-6 -10 -19 0 -19 0 -7 -11 -7 -11 24 7 24 7 15 14 14 14
-6 0 -7 0 -6 -10z" />
    <path d="M480 337 l0 -8 10 -20 11 -19 12 0 12 0 -11 8 -11 7 -11 20 -11 20
-1 -8z" />
    <path d="M1098 333 l22 -4 18 4 17 5 -40 -1 -40 0 23 -4z" />
    <path d="M973 323 l17 -4 18 4 17 5 -35 0 -35 0 18 -5z" />
    <path d="M863 313 l17 -5 13 5 12 5 -30 0 -30 0 18 -5z" />
    <path d="M743 303 l17 -5 13 5 12 5 -30 0 -30 0 18 -5z" />
    <path d="M623 293 l17 -5 13 5 12 5 -30 0 -30 0 18 -5z" />
  </g>
  <g transform="translate(0.000000,180.000000) scale(0.100000,-0.100000)" fill="#b2c6b0" stroke="none">
    <path d="M810 1525 l0 -5 5 0 5 0 0 5 0 5 -5 0 -5 0 0 -5z" />
    <path d="M870 1515 l0 -5 5 0 5 0 0 5 0 5 -5 0 -5 0 0 -5z" />
    <path d="M620 1505 l0 -5 5 0 5 0 0 5 0 5 -5 0 -5 0 0 -5z" />
    <path d="M930 1505 l0 -5 5 0 5 0 0 5 0 5 -5 0 -5 0 0 -5z" />
    <path d="M580 1495 l0 -5 5 0 5 0 0 5 0 5 -5 0 -5 0 0 -5z" />
    <path d="M668 1493 l13 -5 6 6 6 6 -19 -1 -19 -1 13 -5z" />
    <path d="M998 1493 l13 -5 6 6 6 6 -19 -1 -19 -1 13 -5z" />
    <path d="M554 1478 l-7 -11 11 7 12 7 0 5 0 4 -4 0 -5 0 -7 -12z" />
    <path d="M1048 1483 l12 -5 13 5 12 5 -25 0 -25 0 13 -5z" />
    <path d="M1095 1472 l-4 -4 -33 -8 -33 -8 60 0 60 -1 20 8 20 8 -43 4 -43 5
-4 -4z" />
    <path d="M1290 1455 l0 -5 5 0 5 0 0 5 0 5 -5 0 -5 0 0 -5z" />
    <path d="M960 1445 l0 -5 5 0 5 0 0 5 0 5 -5 0 -5 0 0 -5z" />
    <path d="M1320 1445 l0 -5 5 0 5 0 0 5 0 5 -5 0 -5 0 0 -5z" />
    <path d="M848 1433 l13 -5 6 6 6 6 -19 -1 -19 -1 13 -5z" />
    <path d="M738 1423 l22 -4 18 4 17 5 -40 -1 -40 0 23 -4z" />
    <path d="M480 1410 l0 -10 15 0 15 0 0 4 0 4 -15 6 -15 5 0 -9z" />
    <path d="M593 1413 l7 -6 7 6 6 7 -13 0 -13 0 6 -7z" />
    <path d="M648 1413 l12 -5 13 5 12 5 -25 0 -25 0 13 -5z" />
    <path d="M1390 1415 l0 -5 5 0 5 0 0 5 0 5 -5 0 -5 0 0 -5z" />
    <path d="M528 1403 l12 -5 13 5 12 5 -25 0 -25 0 13 -5z" />
    <path d="M440 1395 l0 -5 5 0 5 0 0 5 0 5 -5 0 -5 0 0 -5z" />
    <path d="M1400 1395 l0 -5 5 0 5 0 0 5 0 5 -5 0 -5 0 0 -5z" />
    <path d="M409 1373 l-14 -18 18 14 17 13 0 4 0 4 -4 0 -4 0 -13 -17z" />
    <path d="M1400 1355 l0 -5 5 0 5 0 0 5 0 5 -5 0 -5 0 0 -5z" />
    <path d="M1390 1290 l0 -13 7 6 6 7 -6 7 -7 6 0 -13z" />
    <path d="M402 1240 l0 -25 5 13 5 12 -5 13 -5 12 0 -25z" />
    <path d="M1380 1225 l0 -5 5 0 5 0 0 5 0 5 -5 0 -5 0 0 -5z" />
    <path d="M1370 1165 l0 -5 5 0 5 0 0 5 0 5 -5 0 -5 0 0 -5z" />
    <path d="M833 1133 l7 -6 7 6 6 7 -13 0 -13 0 6 -7z" />
    <path d="M930 1135 l0 -5 5 0 5 0 0 5 0 5 -5 0 -5 0 0 -5z" />
    <path d="M411 1114 l1 -19 5 13 5 13 -6 6 -6 6 1 -19z" />
    <path d="M803 1123 l7 -6 7 6 6 7 -13 0 -13 0 6 -7z" />
    <path d="M965 1120 l6 -10 5 0 5 0 -6 10 -6 10 -5 0 -5 0 6 -10z" />
    <path d="M1360 1105 l0 -5 5 0 5 0 0 5 0 5 -5 0 -5 0 0 -5z" />
    <path d="M995 1090 l6 -10 5 0 5 0 -6 10 -6 10 -5 0 -5 0 6 -10z" />
    <path d="M858 1083 l13 -5 6 6 6 6 -19 -1 -19 -1 13 -5z" />
    <path d="M893 1083 l7 -6 7 6 6 7 -13 0 -13 0 6 -7z" />
    <path d="M830 1075 l0 -5 5 0 5 0 0 5 0 5 -5 0 -5 0 0 -5z" />
    <path d="M920 1075 l0 -5 5 0 5 0 0 5 0 5 -5 0 -5 0 0 -5z" />
    <path d="M740 1065 l0 -5 5 0 5 0 0 5 0 5 -5 0 -5 0 0 -5z" />
    <path d="M804 1058 l-7 -11 11 7 12 7 0 5 0 4 -4 0 -5 0 -7 -12z" />
    <path d="M1010 1065 l0 -5 5 0 5 0 0 5 0 5 -5 0 -5 0 0 -5z" />
    <path d="M1210 1065 l0 -5 5 0 5 0 0 5 0 5 -5 0 -5 0 0 -5z" />
    <path d="M940 1055 l0 -5 5 0 5 0 0 5 0 5 -5 0 -5 0 0 -5z" />
    <path d="M1350 1045 l0 -5 5 0 5 0 0 5 0 5 -5 0 -5 0 0 -5z" />
    <path d="M730 1035 l0 -5 5 0 5 0 0 5 0 5 -5 0 -5 0 0 -5z" />
    <path d="M790 1030 l0 -13 7 6 6 7 -6 7 -7 6 0 -13z" />
    <path d="M1022 1010 l0 -35 5 18 4 17 -4 18 -5 17 0 -35z" />
    <path d="M421 994 l1 -19 5 13 5 13 -6 6 -6 6 1 -19z" />
    <path d="M1340 980 l0 -13 7 6 6 7 -6 7 -7 6 0 -13z" />
    <path d="M780 975 l0 -5 5 0 5 0 0 5 0 5 -5 0 -5 0 0 -5z" />
    <path d="M950 975 l0 -5 5 0 5 0 0 5 0 5 -5 0 -5 0 0 -5z" />
    <path d="M1222 950 l0 -35 5 18 4 17 -4 18 -5 17 0 -35z" />
    <path d="M1004 948 l-7 -11 11 7 12 7 0 5 0 4 -4 0 -5 0 -7 -12z" />
    <path d="M924 938 l-7 -11 11 7 12 7 0 5 0 4 -4 0 -5 0 -7 -12z" />
    <path d="M984 918 l-7 -11 11 7 12 7 0 5 0 4 -4 0 -5 0 -7 -12z" />
    <path d="M1331 904 l1 -19 5 13 5 13 -6 6 -6 6 1 -19z" />
    <path d="M894 898 l-7 -11 11 7 12 7 0 5 0 4 -4 0 -5 0 -7 -12z" />
    <path d="M430 870 l0 -13 7 6 6 7 -6 7 -7 6 0 -13z" />
    <path d="M944 868 l-7 -11 11 7 12 7 0 5 0 4 -4 0 -5 0 -7 -12z" />
    <path d="M870 865 l0 -5 5 0 5 0 0 5 0 5 -5 0 -5 0 0 -5z" />
    <path d="M1233 835 l0 -40 4 23 4 22 -4 18 -5 17 1 -40z" />
    <path d="M1320 840 l0 -13 7 6 6 7 -6 7 -7 6 0 -13z" />
    <path d="M860 835 l0 -5 5 0 5 0 0 5 0 5 -5 0 -5 0 0 -5z" />
    <path d="M920 825 l0 -5 5 0 5 0 0 5 0 5 -5 0 -5 0 0 -5z" />
    <path d="M1304 766 l-6 -15 4 -18 4 -18 5 33 6 32 -4 0 -4 0 -5 -14z" />
    <path d="M441 754 l1 -19 5 13 5 13 -6 6 -6 6 1 -19z" />
    <path d="M873 763 l17 -5 13 5 12 5 -30 0 -30 0 18 -5z" />
    <path d="M1243 715 l0 -40 4 23 4 22 -4 18 -5 17 1 -40z" />
    <path d="M913 713 l7 -6 7 6 6 7 -13 0 -13 0 6 -7z" />
    <path d="M861 694 l1 -19 5 13 5 13 -6 6 -6 6 1 -19z" />
    <path d="M930 671 l0 -19 -12 -5 -13 -5 18 -1 17 -1 0 25 0 25 -5 0 -5 0 0
-19z" />
    <path d="M1291 674 l1 -19 5 13 5 13 -6 6 -6 6 1 -19z" />
    <path d="M451 634 l1 -19 5 13 5 13 -6 6 -6 6 1 -19z" />
    <path d="M1250 630 l0 -13 7 6 6 7 -6 7 -7 6 0 -13z" />
    <path d="M1251 574 l1 -19 5 13 5 13 -6 6 -6 6 1 -19z" />
    <path d="M1282 540 l0 -25 5 13 5 12 -5 13 -5 12 0 -25z" />
    <path d="M462 500 l0 -35 5 18 4 17 -4 18 -5 17 0 -35z" />
    <path d="M1261 514 l1 -19 5 13 5 13 -6 6 -6 6 1 -19z" />
    <path d="M1263 474 l-6 -15 11 -22 11 -22 0 38 1 37 -5 0 -6 0 -6 -16z" />
    <path d="M472 380 l0 -35 5 18 4 17 -4 18 -5 17 0 -35z" />
    <path d="M1260 385 l0 -5 5 0 5 0 0 5 0 5 -5 0 -5 0 0 -5z" />
    <path d="M1250 365 l0 -5 5 0 5 0 0 5 0 5 -5 0 -5 0 0 -5z" />
    <path d="M1230 345 l0 -5 5 0 5 0 0 5 0 5 -5 0 -5 0 0 -5z" />
    <path d="M1158 333 l22 -4 18 4 17 5 -40 -1 -40 0 23 -4z" />
    <path d="M1023 323 l17 -4 18 4 17 5 -35 0 -35 0 18 -5z" />
    <path d="M898 313 l13 -5 6 6 6 6 -19 -1 -19 -1 13 -5z" />
    <path d="M495 300 l6 -10 5 0 5 0 -6 10 -6 10 -5 0 -5 0 6 -10z" />
    <path d="M778 303 l13 -5 6 6 6 6 -19 -1 -19 -1 13 -5z" />
    <path d="M658 293 l13 -5 6 6 6 6 -19 -1 -19 -1 13 -5z" />
    <path d="M538 283 l13 -5 6 6 6 6 -19 -1 -19 -1 13 -5z" />
  </g>
</svg>