<svg width="727" height="874" xmlns="http://www.w3.org/2000/svg" xmlns:xlink="http://www.w3.org/1999/xlink" overflow="hidden"><defs><clipPath id="clip0"><rect x="164" y="827" width="727" height="874"/></clipPath></defs><g clip-path="url(#clip0)" transform="translate(-164 -827)"><path d="M374.732 907.54C377.863 887.404 396.725 873.618 416.862 876.75L764.429 930.797C784.566 933.929 798.351 952.791 795.22 972.928L714.533 1491.8C711.401 1511.94 692.539 1525.73 672.402 1522.6L324.836 1468.55C304.699 1465.42 290.913 1446.55 294.045 1426.42Z" stroke="#CFD8DC" stroke-width="4.58333" stroke-miterlimit="8" fill="#455A64" fill-rule="evenodd"/><text fill="#CFD8DC" font-family="Open Sans,Open Sans_MSFontService,sans-serif" font-weight="400" font-size="367" transform="matrix(0.988124 0.153656 -0.153656 0.988124 447.3 1311)">?</text><path d="M332.505 935.168C333.686 914.824 351.135 899.289 371.48 900.469L722.633 920.847C742.977 922.028 758.513 939.478 757.332 959.822L726.91 1484.05C725.729 1504.4 708.28 1519.93 687.935 1518.75L336.782 1498.37C316.438 1497.19 300.902 1479.74 302.083 1459.4Z" stroke="#CFD8DC" stroke-width="4.58333" stroke-miterlimit="8" fill="#455A64" fill-rule="evenodd"/><text fill="#CFD8DC" font-family="Open Sans,Open Sans_MSFontService,sans-serif" font-weight="400" font-size="367" transform="matrix(0.99832 0.0579346 -0.0579346 0.99832 443.535 1330)">?</text><path d="M300.5 959.352C300.5 938.999 316.999 922.5 337.352 922.5L688.648 922.5C709.001 922.5 725.5 938.999 725.5 959.352L725.5 1484.65C725.5 1505 709.001 1521.5 688.648 1521.5L337.352 1521.5C316.999 1521.5 300.5 1505 300.5 1484.65Z" stroke="#CFD8DC" stroke-width="4.58333" stroke-miterlimit="8" fill="#455A64" fill-rule="evenodd"/><text fill="#CFD8DC" font-family="Open Sans,Open Sans_MSFontService,sans-serif" font-weight="400" font-size="367" transform="matrix(1 0 0 1 433.654 1346)">?</text><path d="M256.337 992.812C254.706 972.498 269.852 954.709 290.165 953.079L640.781 924.932C661.094 923.301 678.883 938.446 680.514 958.759L722.534 1482.19C724.165 1502.5 709.02 1520.29 688.706 1521.92L338.09 1550.07C317.777 1551.7 299.988 1536.55 298.357 1516.24Z" stroke="#CFD8DC" stroke-width="4.58333" stroke-miterlimit="8" fill="#8BC34A" fill-rule="evenodd"/><text fill="#CFD8DC" font-family="Open Sans,Open Sans_MSFontService,sans-serif" font-weight="400" font-size="367" transform="matrix(0.996793 -0.0800209 0.0800209 0.996793 420.63 1368)">?</text></g></svg>