<svg id="Hochschule_Konstanz_mit_Fak." data-name="Hochschule Konstanz mit Fak." xmlns="http://www.w3.org/2000/svg" xmlns:xlink="http://www.w3.org/1999/xlink" viewBox="0 0 321.25 93"><defs><style>.cls-1{clip-path:url(#clip-path);}.cls-2{clip-path:url(#clip-path-2);}.cls-3{clip-path:url(#clip-path-3);}.cls-4{clip-path:url(#clip-path-4);}.cls-5{clip-path:url(#clip-path-5);}.cls-6{clip-path:url(#clip-path-6);}.cls-7{clip-path:url(#clip-path-7);}.cls-8{clip-path:url(#clip-path-8);}.cls-9{clip-path:url(#clip-path-9);}.cls-10{clip-path:url(#clip-path-10);}.cls-11{clip-path:url(#clip-path-11);}.cls-12{clip-path:url(#clip-path-12);}.cls-13{clip-path:url(#clip-path-13);}.cls-14{clip-path:url(#clip-path-14);}.cls-15{clip-path:url(#clip-path-15);}.cls-16{clip-path:url(#clip-path-16);}.cls-17{clip-path:url(#clip-path-17);}.cls-18{clip-path:url(#clip-path-18);}.cls-19{clip-path:url(#clip-path-19);}.cls-20{clip-path:url(#clip-path-20);}.cls-21{clip-path:url(#clip-path-21);}.cls-22{clip-path:url(#clip-path-22);}.cls-23{clip-path:url(#clip-path-23);}.cls-24{clip-path:url(#clip-path-24);}.cls-25{fill:#1d1d1b;}.cls-26{fill:#009b91;}</style><clipPath id="clip-path"><path d="M77.07,13.1a0.82,0.82,0,1,0-.82-0.83,0.83,0.83,0,0,0,.82.83"/></clipPath><clipPath id="clip-path-2"><path d="M7.87,80.64a0.82,0.82,0,1,0,.82.82,0.83,0.83,0,0,0-.82-0.82"/></clipPath><clipPath id="clip-path-3"><path d="M13.5,0.73a2.26,2.26,0,0,0-1.56.61,1.88,1.88,0,0,0-.67,1.43v7.43H4.47V2.77a1.89,1.89,0,0,0-.65-1.43A2.24,2.24,0,0,0,2.23.73a2.24,2.24,0,0,0-1.58.61A1.89,1.89,0,0,0,0,2.77v19a1.94,1.94,0,0,0,.65,1.45,2.21,2.21,0,0,0,1.58.62,2.21,2.21,0,0,0,1.58-.62,2,2,0,0,0,.65-1.45V14.29h6.8v7.43a1.93,1.93,0,0,0,.67,1.45,2.3,2.3,0,0,0,3.14,0,2,2,0,0,0,.65-1.45v-19a1.87,1.87,0,0,0-.67-1.43A2.25,2.25,0,0,0,13.5.73"/></clipPath><clipPath id="clip-path-4"><path d="M49.41,80a3.1,3.1,0,0,0-1.87-.54H44.06a2,2,0,0,0-1.41.59,2,2,0,0,0,0,2.85,2,2,0,0,0,1.41.59h1.66v5a6.51,6.51,0,0,1-1.18.48,5.1,5.1,0,0,1-1.47.19,3.39,3.39,0,0,1-3-1.21,5.6,5.6,0,0,1-.85-3.26V78.3A5.57,5.57,0,0,1,40.09,75a3.41,3.41,0,0,1,3-1.2,4.45,4.45,0,0,1,1.41.21,6.38,6.38,0,0,1,1.25.56L46,74.78l0.58,0.34a1.72,1.72,0,0,0,.8.14,2.08,2.08,0,0,0,1.52-.58,1.81,1.81,0,0,0,.59-1.34A2,2,0,0,0,49,72a4.94,4.94,0,0,0-1.49-1.09,9.42,9.42,0,0,0-2.11-.74,11,11,0,0,0-2.46-.27,10.13,10.13,0,0,0-3.64.59,6.54,6.54,0,0,0-2.54,1.7,6.85,6.85,0,0,0-1.49,2.65,11.62,11.62,0,0,0-.48,3.43v6.32a11.62,11.62,0,0,0,.48,3.44,6.88,6.88,0,0,0,1.49,2.65,6.55,6.55,0,0,0,2.54,1.69,10.14,10.14,0,0,0,3.64.59,13.46,13.46,0,0,0,2.52-.24A8.71,8.71,0,0,0,47.77,92a5.19,5.19,0,0,0,1.73-1.34,3,3,0,0,0,.67-1.93V81.66A2,2,0,0,0,49.41,80"/></clipPath><clipPath id="clip-path-5"><path d="M54.48,35.87a2.68,2.68,0,0,0-.8-0.35,3.37,3.37,0,0,0-.84-0.11,2,2,0,0,0-1.29.43A2.11,2.11,0,0,0,50.79,37l-2,8.14a21.48,21.48,0,0,0-.53,2.66c-0.12.88-.26,1.77-0.43,2.67-0.17-.9-0.31-1.78-0.41-2.67a19.83,19.83,0,0,0-.51-2.66L45,37.68a4,4,0,0,0-.8-1.72,2.18,2.18,0,0,0-1.75-.64,2.2,2.2,0,0,0-1.8.62,4.63,4.63,0,0,0-.78,1.74L38,45.17a21.07,21.07,0,0,0-.48,2.65q-0.16,1.37-.41,2.65-0.26-1.34-.42-2.66a18.74,18.74,0,0,0-.51-2.63l-2.1-8.23a1.79,1.79,0,0,0-.78-1.16A2.4,2.4,0,0,0,32,35.41a3,3,0,0,0-.85.13,2.37,2.37,0,0,0-1.33,1,1.46,1.46,0,0,0-.22.8,0.62,0.62,0,0,1,0,.19,3.79,3.79,0,0,1,.1.41l4.69,18.44a3.07,3.07,0,0,0,.94,1.37,2.5,2.5,0,0,0,1.71.64,2.34,2.34,0,0,0,1.83-.64,3.76,3.76,0,0,0,.78-1.34l1.92-7.88A20.54,20.54,0,0,0,42.08,46c0.11-.86.23-1.72,0.38-2.57q0.22,1.28.38,2.57a20.62,20.62,0,0,0,.48,2.54l1.88,7.82a3.51,3.51,0,0,0,.88,1.42,2.41,2.41,0,0,0,1.77.62,2.37,2.37,0,0,0,1.75-.61,3.46,3.46,0,0,0,.86-1.4l4.79-18.6a0.73,0.73,0,0,0,.06-0.25V37.36a1.58,1.58,0,0,0-.24-0.88,2.07,2.07,0,0,0-.61-0.61"/></clipPath><clipPath id="clip-path-6"><path d="M35.49,4.84h4.75v16.9a1.92,1.92,0,0,0,.66,1.45,2.39,2.39,0,0,0,3.2,0,1.92,1.92,0,0,0,.66-1.45V4.84h4.65A2.36,2.36,0,0,0,51,4.24a1.87,1.87,0,0,0,0-2.91,2.4,2.4,0,0,0-1.58-.6H35.49a2,2,0,0,0-.89.2,2.54,2.54,0,0,0-.71.5,2.49,2.49,0,0,0-.48.66,1.57,1.57,0,0,0-.18.71,1.89,1.89,0,0,0,.65,1.44,2.28,2.28,0,0,0,1.62.6"/></clipPath><clipPath id="clip-path-7"><polyline points="111.81 12.29 111.81 2.93 114.22 2.93 114.22 6.25 117.5 6.25 117.5 2.93 119.91 2.93 119.91 12.29 117.5 12.29 117.5 8.34 114.22 8.34 114.22 12.29 111.81 12.29"/></clipPath><clipPath id="clip-path-8"><path d="M123.79,8.83a2.53,2.53,0,0,0,.35,1.46,1.13,1.13,0,0,0,1,.51,1.14,1.14,0,0,0,1-.51,2.53,2.53,0,0,0,.35-1.45,2.49,2.49,0,0,0-.35-1.44,1.15,1.15,0,0,0-1-.51,1.13,1.13,0,0,0-1,.5,2.54,2.54,0,0,0-.35,1.45h0Zm-2.32,0a3.68,3.68,0,0,1,1-2.71,4.19,4.19,0,0,1,5.39,0,3.67,3.67,0,0,1,1,2.71,3.68,3.68,0,0,1-1,2.72,4.2,4.2,0,0,1-5.39,0,3.71,3.71,0,0,1-1-2.72h0Z"/></clipPath><clipPath id="clip-path-9"><path d="M136.61,9.73a3.06,3.06,0,0,1-1.06,2,3.51,3.51,0,0,1-2.32.73,3.27,3.27,0,0,1-2.49-1,3.63,3.63,0,0,1-.94-2.62,3.86,3.86,0,0,1,1-2.76,3.39,3.39,0,0,1,2.59-1,3.49,3.49,0,0,1,2.29.71,2.75,2.75,0,0,1,1,2h-2.28A1.33,1.33,0,0,0,134,7.1a0.92,0.92,0,0,0-.66-0.24,1,1,0,0,0-.89.5,2.88,2.88,0,0,0-.3,1.47,2.78,2.78,0,0,0,.29,1.42,1,1,0,0,0,.88.47,1,1,0,0,0,.71-0.25,1.33,1.33,0,0,0,.36-0.75h2.23"/></clipPath><clipPath id="clip-path-10"><path d="M137.92,12.29V2.93h2.26V6.28a2.54,2.54,0,0,1,.91-0.82,2.69,2.69,0,0,1,1.21-.26,2.18,2.18,0,0,1,1.66.6,2.44,2.44,0,0,1,.57,1.74v4.76h-2.26V8.81a3.59,3.59,0,0,0-.2-1.55,0.8,0.8,0,0,0-.75-0.33,1,1,0,0,0-.87.4,2.29,2.29,0,0,0-.27,1.27v3.7h-2.25"/></clipPath><clipPath id="clip-path-11"><path d="M145.84,10.18h2.26a0.9,0.9,0,0,0,.34.69,1.42,1.42,0,0,0,.87.23,1.32,1.32,0,0,0,.75-0.19,0.57,0.57,0,0,0,.27-0.5c0-.27-0.36-0.49-1.07-0.67q-0.57-.15-0.92-0.26a4.86,4.86,0,0,1-1.77-.89,1.62,1.62,0,0,1-.48-1.21,2,2,0,0,1,.8-1.65,3.61,3.61,0,0,1,2.21-.6,4.35,4.35,0,0,1,2.31.51,1.93,1.93,0,0,1,.92,1.53h-2.18a0.78,0.78,0,0,0-.32-0.52,1.21,1.21,0,0,0-.69-0.17,1.09,1.09,0,0,0-.63.16,0.51,0.51,0,0,0-.22.44q0,0.41,1.11.71l0.41,0.11q1,0.3,1.43.45a2.56,2.56,0,0,1,.58.28,1.75,1.75,0,0,1,.55.64,1.9,1.9,0,0,1,.18.85,2.05,2.05,0,0,1-.88,1.76,4.12,4.12,0,0,1-2.45.63,4.23,4.23,0,0,1-2.43-.61,2.2,2.2,0,0,1-1-1.72"/></clipPath><clipPath id="clip-path-12"><path d="M160.37,9.73a3.06,3.06,0,0,1-1.06,2,3.5,3.5,0,0,1-2.32.73,3.26,3.26,0,0,1-2.48-1,3.63,3.63,0,0,1-.94-2.62,3.87,3.87,0,0,1,1-2.76,3.39,3.39,0,0,1,2.6-1,3.49,3.49,0,0,1,2.29.71,2.74,2.74,0,0,1,1,2H158.1a1.34,1.34,0,0,0-.35-0.73,0.92,0.92,0,0,0-.66-0.24,1,1,0,0,0-.89.5,2.86,2.86,0,0,0-.31,1.47,2.75,2.75,0,0,0,.29,1.42,1,1,0,0,0,.88.47,1,1,0,0,0,.71-0.25,1.34,1.34,0,0,0,.36-0.75h2.23"/></clipPath><clipPath id="clip-path-13"><path d="M161.69,12.29V2.93h2.26V6.28a2.52,2.52,0,0,1,.91-0.82,2.7,2.7,0,0,1,1.22-.26,2.19,2.19,0,0,1,1.66.6,2.44,2.44,0,0,1,.57,1.74v4.76H166V8.81a3.64,3.64,0,0,0-.2-1.55,0.8,0.8,0,0,0-.75-0.33,1,1,0,0,0-.87.4,2.26,2.26,0,0,0-.28,1.27v3.7h-2.25"/></clipPath><clipPath id="clip-path-14"><path d="M176.55,5.38v6.91h-2.21v-1a2.67,2.67,0,0,1-.92.85,2.48,2.48,0,0,1-1.18.27,2.31,2.31,0,0,1-1.72-.59,2.39,2.39,0,0,1-.58-1.74V5.38h2.26V9.25a2.27,2.27,0,0,0,.21,1.17,0.82,0.82,0,0,0,.74.32,1,1,0,0,0,.86-0.39,2.31,2.31,0,0,0,.27-1.27V5.38h2.26"/></clipPath><clipPath id="clip-path-15"><rect x="178.27" y="2.93" width="2.26" height="9.37"/></clipPath><clipPath id="clip-path-16"><path d="M184.18,8.1h2.57a1.54,1.54,0,0,0-.35-1,1.19,1.19,0,0,0-.93-0.38,1.14,1.14,0,0,0-.89.37,1.78,1.78,0,0,0-.4,1.06h0Zm2.46,2h2.17a3,3,0,0,1-1.2,1.76,3.78,3.78,0,0,1-2.22.62,3.35,3.35,0,0,1-2.54-1,3.69,3.69,0,0,1-.94-2.66,3.8,3.8,0,0,1,.94-2.72,3.75,3.75,0,0,1,5.12,0A4,4,0,0,1,188.93,9c0,0.11,0,.2,0,0.25s0,0.11,0,.15h-4.67a1.73,1.73,0,0,0,.31,1.11,1.12,1.12,0,0,0,.93.39,1.35,1.35,0,0,0,.74-0.19,1,1,0,0,0,.41-0.56h0Z"/></clipPath><clipPath id="clip-path-17"><polyline points="194.06 12.29 194.06 2.93 196.42 2.93 196.42 6.5 199.75 2.93 202.63 2.93 198.84 6.86 202.72 12.29 199.86 12.29 197.23 8.54 196.42 9.35 196.42 12.29 194.06 12.29"/></clipPath><clipPath id="clip-path-18"><path d="M205.28,8.83a2.54,2.54,0,0,0,.35,1.46,1.13,1.13,0,0,0,1,.51,1.14,1.14,0,0,0,1-.51A2.54,2.54,0,0,0,208,8.83a2.5,2.5,0,0,0-.35-1.44,1.24,1.24,0,0,0-2,0,2.55,2.55,0,0,0-.34,1.45h0Zm-2.32,0a3.68,3.68,0,0,1,1-2.71,4.19,4.19,0,0,1,5.39,0,3.67,3.67,0,0,1,1,2.71,3.68,3.68,0,0,1-1,2.72,4.2,4.2,0,0,1-5.39,0,3.71,3.71,0,0,1-1-2.72h0Z"/></clipPath><clipPath id="clip-path-19"><path d="M211.66,12.29V5.38h2.21V6.33a2.36,2.36,0,0,1,.87-0.84A2.56,2.56,0,0,1,216,5.21a2.26,2.26,0,0,1,1.76.61,2.94,2.94,0,0,1,.54,2v4.49H216V8.81a3.57,3.57,0,0,0-.21-1.55,0.8,0.8,0,0,0-.75-0.33,1,1,0,0,0-.87.4,2.28,2.28,0,0,0-.27,1.27v3.7h-2.25"/></clipPath><clipPath id="clip-path-20"><path d="M219.57,10.18h2.27a0.9,0.9,0,0,0,.34.69,1.42,1.42,0,0,0,.87.23,1.33,1.33,0,0,0,.75-0.19,0.57,0.57,0,0,0,.27-0.5c0-.27-0.36-0.49-1.07-0.67q-0.57-.15-0.92-0.26a4.83,4.83,0,0,1-1.77-.89,1.61,1.61,0,0,1-.48-1.21,2,2,0,0,1,.8-1.65,3.61,3.61,0,0,1,2.21-.6,4.37,4.37,0,0,1,2.32.51,1.93,1.93,0,0,1,.91,1.53h-2.17a0.77,0.77,0,0,0-.32-0.52,1.21,1.21,0,0,0-.69-0.17,1.08,1.08,0,0,0-.62.16,0.51,0.51,0,0,0-.22.44q0,0.41,1.11.71l0.41,0.11q1,0.3,1.43.45a2.5,2.5,0,0,1,.58.28,1.75,1.75,0,0,1,.55.64,1.89,1.89,0,0,1,.18.85,2,2,0,0,1-.88,1.76,4.12,4.12,0,0,1-2.45.63,4.25,4.25,0,0,1-2.43-.61,2.2,2.2,0,0,1-1-1.72"/></clipPath><clipPath id="clip-path-21"><path d="M227,6.75V5.38H228v-2h2.26v2h1.16V6.75h-1.16v3a1.57,1.57,0,0,0,.18.91,0.81,0.81,0,0,0,.67.22h0.29V12.3c-0.24,0-.47.08-0.7,0.11a5.41,5.41,0,0,1-.66,0,1.9,1.9,0,0,1-1.61-.58A4.58,4.58,0,0,1,228,9.42V6.75H227"/></clipPath><clipPath id="clip-path-22"><path d="M236.6,9a3,3,0,0,1-.92.3l-0.48.11a1.24,1.24,0,0,0-.57.29,0.67,0.67,0,0,0-.17.48,0.79,0.79,0,0,0,.23.6,0.82,0.82,0,0,0,.6.23,1.36,1.36,0,0,0,.95-0.33,1.13,1.13,0,0,0,.36-0.87V9h0Zm2.49,3.25h-2.31c0-.11,0-0.23-0.07-0.34l-0.05-.37a3.28,3.28,0,0,1-1,.7,3,3,0,0,1-1.18.23,2.21,2.21,0,0,1-1.58-.55,2,2,0,0,1-.58-1.49,2.1,2.1,0,0,1,.46-1.4,2.48,2.48,0,0,1,1.38-.75c0.34-.08.77-0.16,1.29-0.25,0.78-.13,1.17-0.31,1.17-0.56V7.36a0.52,0.52,0,0,0-.22-0.46,1.19,1.19,0,0,0-.67-0.16,1.34,1.34,0,0,0-.77.2,0.85,0.85,0,0,0-.35.58H232.5a2.44,2.44,0,0,1,1-1.74,3.91,3.91,0,0,1,2.29-.57,4.78,4.78,0,0,1,1.56.22,2.12,2.12,0,0,1,1,.67,2,2,0,0,1,.35.77,7.13,7.13,0,0,1,.1,1.44v2.62a2.44,2.44,0,0,0,.09.74,0.53,0.53,0,0,0,.26.35v0.26h0Z"/></clipPath><clipPath id="clip-path-23"><path d="M240.44,12.29V5.38h2.21V6.33a2.4,2.4,0,0,1,.87-0.84,2.56,2.56,0,0,1,1.23-.27,2.26,2.26,0,0,1,1.76.61,2.93,2.93,0,0,1,.54,2v4.49h-2.27V8.81a3.65,3.65,0,0,0-.2-1.55,0.81,0.81,0,0,0-.75-0.33,1,1,0,0,0-.87.4,2.27,2.27,0,0,0-.27,1.27v3.7h-2.25"/></clipPath><clipPath id="clip-path-24"><polyline points="248.29 12.29 248.29 10.63 251.73 7.01 248.51 7.01 248.51 5.38 254.55 5.38 254.55 7.01 251.14 10.63 254.67 10.63 254.67 12.29 248.29 12.29"/></clipPath></defs><title>HTWG_IN_en_Markenzeichen_desktop_pos</title><path d="M77.07,13.1a0.82,0.82,0,1,0-.82-0.83,0.83,0.83,0,0,0,.82.83"/><g class="cls-1"><rect x="71.25" y="6.45" width="11.65" height="11.65"/></g><path d="M7.87,80.64a0.82,0.82,0,1,0,.82.82,0.83,0.83,0,0,0-.82-0.82"/><g class="cls-2"><rect x="2.04" y="75.64" width="11.65" height="11.65"/></g><path d="M13.5,0.73a2.26,2.26,0,0,0-1.56.61,1.88,1.88,0,0,0-.67,1.43v7.43H4.47V2.77a1.89,1.89,0,0,0-.65-1.43A2.24,2.24,0,0,0,2.23.73a2.24,2.24,0,0,0-1.58.61A1.89,1.89,0,0,0,0,2.77v19a1.94,1.94,0,0,0,.65,1.45,2.21,2.21,0,0,0,1.58.62,2.21,2.21,0,0,0,1.58-.62,2,2,0,0,0,.65-1.45V14.29h6.8v7.43a1.93,1.93,0,0,0,.67,1.45,2.3,2.3,0,0,0,3.14,0,2,2,0,0,0,.65-1.45v-19a1.87,1.87,0,0,0-.67-1.43A2.25,2.25,0,0,0,13.5.73"/><g class="cls-3"><rect x="-5" y="-4.27" width="25.73" height="33.07"/></g><path d="M49.41,80a3.1,3.1,0,0,0-1.87-.54H44.06a2,2,0,0,0-1.41.59,2,2,0,0,0,0,2.85,2,2,0,0,0,1.41.59h1.66v5a6.51,6.51,0,0,1-1.18.48,5.1,5.1,0,0,1-1.47.19,3.39,3.39,0,0,1-3-1.21,5.6,5.6,0,0,1-.85-3.26V78.3A5.57,5.57,0,0,1,40.09,75a3.41,3.41,0,0,1,3-1.2,4.45,4.45,0,0,1,1.41.21,6.38,6.38,0,0,1,1.25.56L46,74.78l0.58,0.34a1.72,1.72,0,0,0,.8.14,2.08,2.08,0,0,0,1.52-.58,1.81,1.81,0,0,0,.59-1.34A2,2,0,0,0,49,72a4.94,4.94,0,0,0-1.49-1.09,9.42,9.42,0,0,0-2.11-.74,11,11,0,0,0-2.46-.27,10.13,10.13,0,0,0-3.64.59,6.54,6.54,0,0,0-2.54,1.7,6.85,6.85,0,0,0-1.49,2.65,11.62,11.62,0,0,0-.48,3.43v6.32a11.62,11.62,0,0,0,.48,3.44,6.88,6.88,0,0,0,1.49,2.65,6.55,6.55,0,0,0,2.54,1.69,10.14,10.14,0,0,0,3.64.59,13.46,13.46,0,0,0,2.52-.24A8.71,8.71,0,0,0,47.77,92a5.19,5.19,0,0,0,1.73-1.34,3,3,0,0,0,.67-1.93V81.66A2,2,0,0,0,49.41,80"/><g class="cls-4"><rect x="29.77" y="64.93" width="25.4" height="33.07"/></g><path d="M54.48,35.87a2.68,2.68,0,0,0-.8-0.35,3.37,3.37,0,0,0-.84-0.11,2,2,0,0,0-1.29.43A2.11,2.11,0,0,0,50.79,37l-2,8.14a21.48,21.48,0,0,0-.53,2.66c-0.12.88-.26,1.77-0.43,2.67-0.17-.9-0.31-1.78-0.41-2.67a19.83,19.83,0,0,0-.51-2.66L45,37.68a4,4,0,0,0-.8-1.72,2.18,2.18,0,0,0-1.75-.64,2.2,2.2,0,0,0-1.8.62,4.63,4.63,0,0,0-.78,1.74L38,45.17a21.07,21.07,0,0,0-.48,2.65q-0.16,1.37-.41,2.65-0.26-1.34-.42-2.66a18.74,18.74,0,0,0-.51-2.63l-2.1-8.23a1.79,1.79,0,0,0-.78-1.16A2.4,2.4,0,0,0,32,35.41a3,3,0,0,0-.85.13,2.37,2.37,0,0,0-1.33,1,1.46,1.46,0,0,0-.22.8,0.62,0.62,0,0,1,0,.19,3.79,3.79,0,0,1,.1.41l4.69,18.44a3.07,3.07,0,0,0,.94,1.37,2.5,2.5,0,0,0,1.71.64,2.34,2.34,0,0,0,1.83-.64,3.76,3.76,0,0,0,.78-1.34l1.92-7.88A20.54,20.54,0,0,0,42.08,46c0.11-.86.23-1.72,0.38-2.57q0.22,1.28.38,2.57a20.62,20.62,0,0,0,.48,2.54l1.88,7.82a3.51,3.51,0,0,0,.88,1.42,2.41,2.41,0,0,0,1.77.62,2.37,2.37,0,0,0,1.75-.61,3.46,3.46,0,0,0,.86-1.4l4.79-18.6a0.73,0.73,0,0,0,.06-0.25V37.36a1.58,1.58,0,0,0-.24-0.88,2.07,2.07,0,0,0-.61-0.61"/><g class="cls-5"><rect x="24.61" y="30.32" width="35.71" height="33.07"/></g><path d="M35.49,4.84h4.75v16.9a1.92,1.92,0,0,0,.66,1.45,2.39,2.39,0,0,0,3.2,0,1.92,1.92,0,0,0,.66-1.45V4.84h4.65A2.36,2.36,0,0,0,51,4.24a1.87,1.87,0,0,0,0-2.91,2.4,2.4,0,0,0-1.58-.6H35.49a2,2,0,0,0-.89.2,2.54,2.54,0,0,0-.71.5,2.49,2.49,0,0,0-.48.66,1.57,1.57,0,0,0-.18.71,1.89,1.89,0,0,0,.65,1.44,2.28,2.28,0,0,0,1.62.6"/><g class="cls-6"><rect x="28.22" y="-4.27" width="28.48" height="33.07"/></g><polyline points="111.81 12.29 111.81 2.93 114.22 2.93 114.22 6.25 117.5 6.25 117.5 2.93 119.91 2.93 119.91 12.29 117.5 12.29 117.5 8.34 114.22 8.34 114.22 12.29 111.81 12.29"/><g class="cls-7"><rect x="106.81" y="-2.07" width="18.1" height="19.37"/></g><path d="M123.79,8.83a2.53,2.53,0,0,0,.35,1.46,1.13,1.13,0,0,0,1,.51,1.14,1.14,0,0,0,1-.51,2.53,2.53,0,0,0,.35-1.45,2.49,2.49,0,0,0-.35-1.44,1.15,1.15,0,0,0-1-.51,1.13,1.13,0,0,0-1,.5,2.54,2.54,0,0,0-.35,1.45h0Zm-2.32,0a3.68,3.68,0,0,1,1-2.71,4.19,4.19,0,0,1,5.39,0,3.67,3.67,0,0,1,1,2.71,3.68,3.68,0,0,1-1,2.72,4.2,4.2,0,0,1-5.39,0,3.71,3.71,0,0,1-1-2.72h0Z"/><g class="cls-8"><rect x="116.47" y="0.13" width="17.34" height="17.39"/></g><path d="M136.61,9.73a3.06,3.06,0,0,1-1.06,2,3.51,3.51,0,0,1-2.32.73,3.27,3.27,0,0,1-2.49-1,3.63,3.63,0,0,1-.94-2.62,3.86,3.86,0,0,1,1-2.76,3.39,3.39,0,0,1,2.59-1,3.49,3.49,0,0,1,2.29.71,2.75,2.75,0,0,1,1,2h-2.28A1.33,1.33,0,0,0,134,7.1a0.92,0.92,0,0,0-.66-0.24,1,1,0,0,0-.89.5,2.88,2.88,0,0,0-.3,1.47,2.78,2.78,0,0,0,.29,1.42,1,1,0,0,0,.88.47,1,1,0,0,0,.71-0.25,1.33,1.33,0,0,0,.36-0.75h2.23"/><g class="cls-9"><rect x="124.81" y="0.13" width="16.81" height="17.38"/></g><path d="M137.92,12.29V2.93h2.26V6.28a2.54,2.54,0,0,1,.91-0.82,2.69,2.69,0,0,1,1.21-.26,2.18,2.18,0,0,1,1.66.6,2.44,2.44,0,0,1,.57,1.74v4.76h-2.26V8.81a3.59,3.59,0,0,0-.2-1.55,0.8,0.8,0,0,0-.75-0.33,1,1,0,0,0-.87.4,2.29,2.29,0,0,0-.27,1.27v3.7h-2.25"/><g class="cls-10"><rect x="132.92" y="-2.07" width="16.61" height="19.37"/></g><path d="M145.84,10.18h2.26a0.9,0.9,0,0,0,.34.69,1.42,1.42,0,0,0,.87.23,1.32,1.32,0,0,0,.75-0.19,0.57,0.57,0,0,0,.27-0.5c0-.27-0.36-0.49-1.07-0.67q-0.57-.15-0.92-0.26a4.86,4.86,0,0,1-1.77-.89,1.62,1.62,0,0,1-.48-1.21,2,2,0,0,1,.8-1.65,3.61,3.61,0,0,1,2.21-.6,4.35,4.35,0,0,1,2.31.51,1.93,1.93,0,0,1,.92,1.53h-2.18a0.78,0.78,0,0,0-.32-0.52,1.21,1.21,0,0,0-.69-0.17,1.09,1.09,0,0,0-.63.16,0.51,0.51,0,0,0-.22.44q0,0.41,1.11.71l0.41,0.11q1,0.3,1.43.45a2.56,2.56,0,0,1,.58.28,1.75,1.75,0,0,1,.55.64,1.9,1.9,0,0,1,.18.85,2.05,2.05,0,0,1-.88,1.76,4.12,4.12,0,0,1-2.45.63,4.23,4.23,0,0,1-2.43-.61,2.2,2.2,0,0,1-1-1.72"/><g class="cls-11"><rect x="140.84" y="0.13" width="16.73" height="17.38"/></g><path d="M160.37,9.73a3.06,3.06,0,0,1-1.06,2,3.5,3.5,0,0,1-2.32.73,3.26,3.26,0,0,1-2.48-1,3.63,3.63,0,0,1-.94-2.62,3.87,3.87,0,0,1,1-2.76,3.39,3.39,0,0,1,2.6-1,3.49,3.49,0,0,1,2.29.71,2.74,2.74,0,0,1,1,2H158.1a1.34,1.34,0,0,0-.35-0.73,0.92,0.92,0,0,0-.66-0.24,1,1,0,0,0-.89.5,2.86,2.86,0,0,0-.31,1.47,2.75,2.75,0,0,0,.29,1.42,1,1,0,0,0,.88.47,1,1,0,0,0,.71-0.25,1.34,1.34,0,0,0,.36-0.75h2.23"/><g class="cls-12"><rect x="148.57" y="0.13" width="16.81" height="17.38"/></g><path d="M161.69,12.29V2.93h2.26V6.28a2.52,2.52,0,0,1,.91-0.82,2.7,2.7,0,0,1,1.22-.26,2.19,2.19,0,0,1,1.66.6,2.44,2.44,0,0,1,.57,1.74v4.76H166V8.81a3.64,3.64,0,0,0-.2-1.55,0.8,0.8,0,0,0-.75-0.33,1,1,0,0,0-.87.4,2.26,2.26,0,0,0-.28,1.27v3.7h-2.25"/><g class="cls-13"><rect x="156.69" y="-2.07" width="16.61" height="19.37"/></g><path d="M176.55,5.38v6.91h-2.21v-1a2.67,2.67,0,0,1-.92.85,2.48,2.48,0,0,1-1.18.27,2.31,2.31,0,0,1-1.72-.59,2.39,2.39,0,0,1-.58-1.74V5.38h2.26V9.25a2.27,2.27,0,0,0,.21,1.17,0.82,0.82,0,0,0,.74.32,1,1,0,0,0,.86-0.39,2.31,2.31,0,0,0,.27-1.27V5.38h2.26"/><g class="cls-14"><rect x="164.94" y="0.38" width="16.61" height="17.08"/></g><rect x="178.27" y="2.93" width="2.26" height="9.37"/><g class="cls-15"><rect x="173.27" y="-2.07" width="12.26" height="19.37"/></g><path d="M184.18,8.1h2.57a1.54,1.54,0,0,0-.35-1,1.19,1.19,0,0,0-.93-0.38,1.14,1.14,0,0,0-.89.37,1.78,1.78,0,0,0-.4,1.06h0Zm2.46,2h2.17a3,3,0,0,1-1.2,1.76,3.78,3.78,0,0,1-2.22.62,3.35,3.35,0,0,1-2.54-1,3.69,3.69,0,0,1-.94-2.66,3.8,3.8,0,0,1,.94-2.72,3.75,3.75,0,0,1,5.12,0A4,4,0,0,1,188.93,9c0,0.11,0,.2,0,0.25s0,0.11,0,.15h-4.67a1.73,1.73,0,0,0,.31,1.11,1.12,1.12,0,0,0,.93.39,1.35,1.35,0,0,0,.74-0.19,1,1,0,0,0,.41-0.56h0Z"/><g class="cls-16"><rect x="176.93" y="0.15" width="17.01" height="17.36"/></g><polyline points="194.06 12.29 194.06 2.93 196.42 2.93 196.42 6.5 199.75 2.93 202.63 2.93 198.84 6.86 202.72 12.29 199.86 12.29 197.23 8.54 196.42 9.35 196.42 12.29 194.06 12.29"/><g class="cls-17"><rect x="189.06" y="-2.07" width="18.66" height="19.37"/></g><path d="M205.28,8.83a2.54,2.54,0,0,0,.35,1.46,1.13,1.13,0,0,0,1,.51,1.14,1.14,0,0,0,1-.51A2.54,2.54,0,0,0,208,8.83a2.5,2.5,0,0,0-.35-1.44,1.24,1.24,0,0,0-2,0,2.55,2.55,0,0,0-.34,1.45h0Zm-2.32,0a3.68,3.68,0,0,1,1-2.71,4.19,4.19,0,0,1,5.39,0,3.67,3.67,0,0,1,1,2.71,3.68,3.68,0,0,1-1,2.72,4.2,4.2,0,0,1-5.39,0,3.71,3.71,0,0,1-1-2.72h0Z"/><g class="cls-18"><rect x="197.96" y="0.13" width="17.33" height="17.39"/></g><path d="M211.66,12.29V5.38h2.21V6.33a2.36,2.36,0,0,1,.87-0.84A2.56,2.56,0,0,1,216,5.21a2.26,2.26,0,0,1,1.76.61,2.94,2.94,0,0,1,.54,2v4.49H216V8.81a3.57,3.57,0,0,0-.21-1.55,0.8,0.8,0,0,0-.75-0.33,1,1,0,0,0-.87.4,2.28,2.28,0,0,0-.27,1.27v3.7h-2.25"/><g class="cls-19"><rect x="206.66" y="0.21" width="16.61" height="17.08"/></g><path d="M219.57,10.18h2.27a0.9,0.9,0,0,0,.34.69,1.42,1.42,0,0,0,.87.23,1.33,1.33,0,0,0,.75-0.19,0.57,0.57,0,0,0,.27-0.5c0-.27-0.36-0.49-1.07-0.67q-0.57-.15-0.92-0.26a4.83,4.83,0,0,1-1.77-.89,1.61,1.61,0,0,1-.48-1.21,2,2,0,0,1,.8-1.65,3.61,3.61,0,0,1,2.21-.6,4.37,4.37,0,0,1,2.32.51,1.93,1.93,0,0,1,.91,1.53h-2.17a0.77,0.77,0,0,0-.32-0.52,1.21,1.21,0,0,0-.69-0.17,1.08,1.08,0,0,0-.62.16,0.51,0.51,0,0,0-.22.44q0,0.41,1.11.71l0.41,0.11q1,0.3,1.43.45a2.5,2.5,0,0,1,.58.28,1.75,1.75,0,0,1,.55.64,1.89,1.89,0,0,1,.18.85,2,2,0,0,1-.88,1.76,4.12,4.12,0,0,1-2.45.63,4.25,4.25,0,0,1-2.43-.61,2.2,2.2,0,0,1-1-1.72"/><g class="cls-20"><rect x="214.57" y="0.13" width="16.73" height="17.38"/></g><path d="M227,6.75V5.38H228v-2h2.26v2h1.16V6.75h-1.16v3a1.57,1.57,0,0,0,.18.91,0.81,0.81,0,0,0,.67.22h0.29V12.3c-0.24,0-.47.08-0.7,0.11a5.41,5.41,0,0,1-.66,0,1.9,1.9,0,0,1-1.61-.58A4.58,4.58,0,0,1,228,9.42V6.75H227"/><g class="cls-21"><rect x="222.04" y="-1.58" width="14.35" height="19.03"/></g><path d="M236.6,9a3,3,0,0,1-.92.3l-0.48.11a1.24,1.24,0,0,0-.57.29,0.67,0.67,0,0,0-.17.48,0.79,0.79,0,0,0,.23.6,0.82,0.82,0,0,0,.6.23,1.36,1.36,0,0,0,.95-0.33,1.13,1.13,0,0,0,.36-0.87V9h0Zm2.49,3.25h-2.31c0-.11,0-0.23-0.07-0.34l-0.05-.37a3.28,3.28,0,0,1-1,.7,3,3,0,0,1-1.18.23,2.21,2.21,0,0,1-1.58-.55,2,2,0,0,1-.58-1.49,2.1,2.1,0,0,1,.46-1.4,2.48,2.48,0,0,1,1.38-.75c0.34-.08.77-0.16,1.29-0.25,0.78-.13,1.17-0.31,1.17-0.56V7.36a0.52,0.52,0,0,0-.22-0.46,1.19,1.19,0,0,0-.67-0.16,1.34,1.34,0,0,0-.77.2,0.85,0.85,0,0,0-.35.58H232.5a2.44,2.44,0,0,1,1-1.74,3.91,3.91,0,0,1,2.29-.57,4.78,4.78,0,0,1,1.56.22,2.12,2.12,0,0,1,1,.67,2,2,0,0,1,.35.77,7.13,7.13,0,0,1,.1,1.44v2.62a2.44,2.44,0,0,0,.09.74,0.53,0.53,0,0,0,.26.35v0.26h0Z"/><g class="cls-22"><rect x="227.3" y="0.21" width="16.79" height="17.3"/></g><path d="M240.44,12.29V5.38h2.21V6.33a2.4,2.4,0,0,1,.87-0.84,2.56,2.56,0,0,1,1.23-.27,2.26,2.26,0,0,1,1.76.61,2.93,2.93,0,0,1,.54,2v4.49h-2.27V8.81a3.65,3.65,0,0,0-.2-1.55,0.81,0.81,0,0,0-.75-0.33,1,1,0,0,0-.87.4,2.27,2.27,0,0,0-.27,1.27v3.7h-2.25"/><g class="cls-23"><rect x="235.44" y="0.21" width="16.61" height="17.08"/></g><polyline points="248.29 12.29 248.29 10.63 251.73 7.01 248.51 7.01 248.51 5.38 254.55 5.38 254.55 7.01 251.14 10.63 254.67 10.63 254.67 12.29 248.29 12.29"/><g class="cls-24"><rect x="243.29" y="0.38" width="16.38" height="16.91"/></g><path class="cls-25" d="M114.19,19.06h0.64a9.21,9.21,0,0,1,1.74.12,3,3,0,0,1,1,.39,3.44,3.44,0,0,1,1.32,1.61,6.47,6.47,0,0,1,.45,2.55,6.45,6.45,0,0,1-.5,2.68A3.36,3.36,0,0,1,117.37,28a3.16,3.16,0,0,1-1,.31,12.87,12.87,0,0,1-1.81.09H112V19.06h2.2Zm-1.34,8.6h1.81a10.71,10.71,0,0,0,1.55-.08,2.34,2.34,0,0,0,.81-0.27,2.56,2.56,0,0,0,1.06-1.3,6.15,6.15,0,0,0,.35-2.25,6.13,6.13,0,0,0-.34-2.19,2.66,2.66,0,0,0-1-1.31,2.27,2.27,0,0,0-.84-0.32,10.24,10.24,0,0,0-1.69-.1h-1.72v7.83Z"/><path class="cls-25" d="M121.48,25.2v0a3,3,0,0,0,.6,2,2,2,0,0,0,1.6.73,2.05,2.05,0,0,0,1.33-.43,1.79,1.79,0,0,0,.65-1.17h0.78a2.42,2.42,0,0,1-.89,1.65,3,3,0,0,1-1.92.62,2.67,2.67,0,0,1-2.16-.93,3.92,3.92,0,0,1-.78-2.59,4,4,0,0,1,.79-2.64,2.68,2.68,0,0,1,2.18-.95,2.62,2.62,0,0,1,2.12.91,3.83,3.83,0,0,1,.76,2.53V25.2h-5.05Zm0-.63h4.23a2.79,2.79,0,0,0-.61-1.76,1.86,1.86,0,0,0-1.48-.64,1.93,1.93,0,0,0-1.51.65A2.74,2.74,0,0,0,121.49,24.57Z"/><path class="cls-25" d="M128.08,31.15V21.67h0.79v1.21a2.61,2.61,0,0,1,1-1,3,3,0,0,1,3.59.61,3.92,3.92,0,0,1,.8,2.61,3.88,3.88,0,0,1-.81,2.61,2.77,2.77,0,0,1-2.22.95,2.62,2.62,0,0,1-1.35-.34,2.74,2.74,0,0,1-1-1v3.89h-0.79Zm0.76-6.09a3.29,3.29,0,0,0,.6,2.1,2,2,0,0,0,1.67.76,2.05,2.05,0,0,0,1.7-.74,3.32,3.32,0,0,0,.59-2.12,3.32,3.32,0,0,0-.6-2.12,2.29,2.29,0,0,0-3.38,0A3.34,3.34,0,0,0,128.83,25.06Z"/><path class="cls-25" d="M140.13,27.45a3.66,3.66,0,0,1-1.16.86,3.18,3.18,0,0,1-1.34.29,2.38,2.38,0,0,1-1.63-.53,1.8,1.8,0,0,1-.61-1.42,1.83,1.83,0,0,1,.28-1,1.89,1.89,0,0,1,.8-0.68,6.52,6.52,0,0,1,2-.38l0.41,0,0.22,0a1,1,0,0,0,1-.83,1.43,1.43,0,0,0-.39-1.13,2,2,0,0,0-1.29-.34,2.22,2.22,0,0,0-1.39.38,1.44,1.44,0,0,0-.52,1.12h-0.77a2,2,0,0,1,.74-1.6,3,3,0,0,1,1.94-.59,2.83,2.83,0,0,1,1.84.52,1.87,1.87,0,0,1,.63,1.53v3.69a0.84,0.84,0,0,0,.1.52,0.54,0.54,0,0,0,.38.1h0.29v0.58l-0.29,0-0.27,0a1,1,0,0,1-.72-0.24,0.93,0.93,0,0,1-.24-0.7V27.45Zm-0.05-2.56a4,4,0,0,1-.8.18q-0.49.07-1.57,0.13a2.57,2.57,0,0,0-1.13.56,1.16,1.16,0,0,0-.38.87,1.14,1.14,0,0,0,.41.92,1.68,1.68,0,0,0,1.12.34,2.52,2.52,0,0,0,1.71-.56,1.91,1.91,0,0,0,.64-1.52V24.88Z"/><path class="cls-25" d="M142.85,28.43V21.67h0.76v1.18a2.21,2.21,0,0,1,.81-1,2.29,2.29,0,0,1,1.27-.34h0.09v0.82h-0.1a1.88,1.88,0,0,0-1.52.6,2.71,2.71,0,0,0-.51,1.79v3.73h-0.81Z"/><path class="cls-25" d="M148,19.73v1.94h1.25V22.3H148v4.93a1,1,0,0,0,.11.57,0.46,0.46,0,0,0,.39.14l0.27,0,0.48-.09v0.62a4.71,4.71,0,0,1-.52.11,3.07,3.07,0,0,1-.45,0,1,1,0,0,1-.83-0.3,1.75,1.75,0,0,1-.24-1.07V22.3H146.3V21.67h0.92V19.73H148Z"/><path class="cls-25" d="M150.63,28.43V21.67h0.73v1.12a2.5,2.5,0,0,1,.89-1,2.37,2.37,0,0,1,1.25-.33,2.16,2.16,0,0,1,1.26.35,1.65,1.65,0,0,1,.67,1,2.44,2.44,0,0,1,.89-1,2.41,2.41,0,0,1,1.28-.34,2.22,2.22,0,0,1,1.64.55,2.29,2.29,0,0,1,.54,1.67v4.71H159V23.78a1.81,1.81,0,0,0-.33-1.22,1.4,1.4,0,0,0-1.09-.37,1.92,1.92,0,0,0-1.44.55,2,2,0,0,0-.54,1.45v4.23h-0.78V23.85a1.88,1.88,0,0,0-.35-1.25,1.34,1.34,0,0,0-1.07-.41,1.91,1.91,0,0,0-1.44.57,2,2,0,0,0-.55,1.48v4.18h-0.78Z"/><path class="cls-25" d="M162.08,25.2v0a3,3,0,0,0,.6,2,2,2,0,0,0,1.6.73,2.05,2.05,0,0,0,1.33-.43,1.79,1.79,0,0,0,.65-1.17H167a2.42,2.42,0,0,1-.89,1.65,3,3,0,0,1-1.92.62,2.67,2.67,0,0,1-2.16-.93,3.92,3.92,0,0,1-.78-2.59,4,4,0,0,1,.79-2.64,2.68,2.68,0,0,1,2.18-.95,2.62,2.62,0,0,1,2.12.91,3.83,3.83,0,0,1,.76,2.53V25.2h-5.05Zm0-.63h4.23a2.79,2.79,0,0,0-.61-1.76,1.86,1.86,0,0,0-1.48-.64,1.93,1.93,0,0,0-1.51.65A2.74,2.74,0,0,0,162.09,24.57Z"/><path class="cls-25" d="M168.65,28.43V21.67h0.76v1.08a2.47,2.47,0,0,1,2.24-1.25,2.86,2.86,0,0,1,1.23.25,1.83,1.83,0,0,1,.81.71,1.68,1.68,0,0,1,.21.57,6.53,6.53,0,0,1,.06,1.1v4.31h-0.81V24.24a2.57,2.57,0,0,0-.37-1.61,1.63,1.63,0,0,0-1.29-.42,1.93,1.93,0,0,0-1.5.6,2.33,2.33,0,0,0-.55,1.64v4h-0.79Z"/><path class="cls-25" d="M176.83,19.73v1.94h1.25V22.3h-1.25v4.93a1,1,0,0,0,.11.57,0.46,0.46,0,0,0,.39.14l0.27,0,0.48-.09v0.62a4.67,4.67,0,0,1-.52.11,3.08,3.08,0,0,1-.45,0,1,1,0,0,1-.83-0.3,1.75,1.75,0,0,1-.24-1.07V22.3h-0.92V21.67H176V19.73h0.78Z"/><path class="cls-25" d="M182.71,25.06a3.88,3.88,0,0,1,.81-2.63,2.87,2.87,0,0,1,2.29-.93,2.9,2.9,0,0,1,2.3.93,3.86,3.86,0,0,1,.82,2.63,3.84,3.84,0,0,1-.81,2.61,3.3,3.3,0,0,1-4.59,0A3.84,3.84,0,0,1,182.71,25.06Zm0.81,0a3.3,3.3,0,0,0,.6,2.11,2.29,2.29,0,0,0,3.38,0,3.3,3.3,0,0,0,.6-2.12,3.32,3.32,0,0,0-.6-2.12,2.29,2.29,0,0,0-3.38,0A3.31,3.31,0,0,0,183.52,25.06Z"/><path class="cls-25" d="M190.83,28.43V22.3h-1V21.67h1V20.43a1.44,1.44,0,0,1,.38-1.11,1.77,1.77,0,0,1,1.22-.35h0.19l0.21,0v0.7h-0.08l-0.36,0a0.85,0.85,0,0,0-.62.18,0.9,0.9,0,0,0-.18.64v1.16h1.23V22.3H191.6v6.12h-0.78Z"/><path class="cls-25" d="M204.37,25.37h0.85a3.43,3.43,0,0,1-1.1,2.44,3.83,3.83,0,0,1-2.64.88,3.66,3.66,0,0,1-3-1.33,5.54,5.54,0,0,1-1.09-3.63,5.41,5.41,0,0,1,1.1-3.6,3.71,3.71,0,0,1,3-1.31,3.91,3.91,0,0,1,2.57.81,2.87,2.87,0,0,1,1.05,2.17h-0.85a2.29,2.29,0,0,0-.85-1.62,3,3,0,0,0-1.93-.59,2.83,2.83,0,0,0-2.36,1.08,4.85,4.85,0,0,0-.85,3,5,5,0,0,0,.86,3.1,3.16,3.16,0,0,0,4.37.44A2.69,2.69,0,0,0,204.37,25.37Z"/><path class="cls-25" d="M206.49,25.06a3.88,3.88,0,0,1,.81-2.63,2.87,2.87,0,0,1,2.29-.93,2.9,2.9,0,0,1,2.3.93,3.86,3.86,0,0,1,.82,2.63,3.84,3.84,0,0,1-.81,2.61,3.3,3.3,0,0,1-4.59,0A3.84,3.84,0,0,1,206.49,25.06Zm0.81,0a3.3,3.3,0,0,0,.6,2.11,2.29,2.29,0,0,0,3.39,0,3.3,3.3,0,0,0,.6-2.12,3.32,3.32,0,0,0-.6-2.12,2.29,2.29,0,0,0-3.39,0A3.31,3.31,0,0,0,207.3,25.06Z"/><path class="cls-25" d="M214.22,28.43V21.67H215v1.12a2.5,2.5,0,0,1,.89-1,2.36,2.36,0,0,1,1.25-.33,2.16,2.16,0,0,1,1.26.35,1.65,1.65,0,0,1,.67,1,2.44,2.44,0,0,1,.89-1,2.41,2.41,0,0,1,1.28-.34,2.22,2.22,0,0,1,1.64.55,2.29,2.29,0,0,1,.54,1.67v4.71h-0.79V23.78a1.81,1.81,0,0,0-.33-1.22,1.4,1.4,0,0,0-1.09-.37,1.92,1.92,0,0,0-1.44.55,2,2,0,0,0-.54,1.45v4.23h-0.78V23.85a1.87,1.87,0,0,0-.35-1.25A1.33,1.33,0,0,0,217,22.2a1.91,1.91,0,0,0-1.44.57,2,2,0,0,0-.55,1.48v4.18h-0.78Z"/><path class="cls-25" d="M225.24,31.15V21.67H226v1.21a2.61,2.61,0,0,1,1-1,3,3,0,0,1,3.59.61,3.92,3.92,0,0,1,.8,2.61,3.88,3.88,0,0,1-.81,2.61,2.77,2.77,0,0,1-2.22.95,2.62,2.62,0,0,1-1.35-.34,2.73,2.73,0,0,1-1-1v3.89h-0.79ZM226,25.06a3.3,3.3,0,0,0,.6,2.1,2,2,0,0,0,1.67.76,2,2,0,0,0,1.7-.74,3.32,3.32,0,0,0,.59-2.12,3.32,3.32,0,0,0-.6-2.12,2,2,0,0,0-1.7-.75,2,2,0,0,0-1.68.74A3.34,3.34,0,0,0,226,25.06Z"/><path class="cls-25" d="M238.19,21.67v6.76h-0.76V27.34a2.6,2.6,0,0,1-.94,1,2.66,2.66,0,0,1-1.32.31,2.27,2.27,0,0,1-1.72-.6,2.51,2.51,0,0,1-.58-1.8V21.67h0.78V26a2.14,2.14,0,0,0,.38,1.44,1.64,1.64,0,0,0,1.27.43,2,2,0,0,0,1.54-.59,2.28,2.28,0,0,0,.56-1.63v-4h0.78Z"/><path class="cls-25" d="M241.1,19.73v1.94h1.25V22.3H241.1v4.93a1,1,0,0,0,.11.57,0.46,0.46,0,0,0,.39.14l0.27,0,0.48-.09v0.62a4.67,4.67,0,0,1-.52.11,3.08,3.08,0,0,1-.45,0,1,1,0,0,1-.83-0.3,1.75,1.75,0,0,1-.24-1.07V22.3h-0.92V21.67h0.92V19.73h0.78Z"/><path class="cls-25" d="M244.18,25.2v0a3,3,0,0,0,.6,2,2,2,0,0,0,1.6.73,2.05,2.05,0,0,0,1.33-.43,1.79,1.79,0,0,0,.65-1.17h0.78a2.42,2.42,0,0,1-.89,1.65,3,3,0,0,1-1.92.62,2.67,2.67,0,0,1-2.16-.93,3.92,3.92,0,0,1-.78-2.59,4,4,0,0,1,.79-2.64,2.68,2.68,0,0,1,2.18-.95,2.62,2.62,0,0,1,2.12.91,3.83,3.83,0,0,1,.76,2.53V25.2h-5.05Zm0-.63h4.23a2.79,2.79,0,0,0-.61-1.76,1.86,1.86,0,0,0-1.48-.64,1.93,1.93,0,0,0-1.51.65A2.74,2.74,0,0,0,244.2,24.57Z"/><path class="cls-25" d="M250.76,28.43V21.67h0.76v1.18a2.22,2.22,0,0,1,.81-1,2.29,2.29,0,0,1,1.27-.34h0.09v0.82h-0.1a1.88,1.88,0,0,0-1.52.6,2.71,2.71,0,0,0-.51,1.79v3.73h-0.81Z"/><path class="cls-25" d="M258.21,25.59h0.86a2.21,2.21,0,0,0,.7,1.72,2.81,2.81,0,0,0,1.93.61,2.71,2.71,0,0,0,1.72-.49,1.63,1.63,0,0,0,.63-1.36,1.61,1.61,0,0,0-.44-1.22,4.19,4.19,0,0,0-1.75-.76L261,23.87a4.27,4.27,0,0,1-2-.94,2.2,2.2,0,0,1-.55-1.6,2.25,2.25,0,0,1,.83-1.82,3.39,3.39,0,0,1,2.23-.69,3.31,3.31,0,0,1,2.3.75,2.74,2.74,0,0,1,.85,2.1h-0.87a2,2,0,0,0-.62-1.54,2.95,2.95,0,0,0-3.29-.08,1.6,1.6,0,0,0-.57,1.31,1.39,1.39,0,0,0,.37,1,2.61,2.61,0,0,0,1.22.59L262,23.23a5.2,5.2,0,0,1,2.28,1A2.25,2.25,0,0,1,264.9,26a2.46,2.46,0,0,1-.86,2,3.54,3.54,0,0,1-2.36.72,3.81,3.81,0,0,1-2.57-.79,2.82,2.82,0,0,1-.9-2.25V25.59Z"/><path class="cls-25" d="M271.15,26.09h0.78a2.68,2.68,0,0,1-.86,1.83,2.82,2.82,0,0,1-2,.67,2.68,2.68,0,0,1-2.16-.94,3.85,3.85,0,0,1-.79-2.56,4,4,0,0,1,.8-2.64,2.72,2.72,0,0,1,2.2-1,2.75,2.75,0,0,1,1.87.64,2.3,2.3,0,0,1,.79,1.68h-0.75a1.79,1.79,0,0,0-.62-1.18,2.08,2.08,0,0,0-2.9.32A3.29,3.29,0,0,0,267,25a3.4,3.4,0,0,0,.6,2.12,1.93,1.93,0,0,0,1.61.78,1.86,1.86,0,0,0,1.32-.49A2.19,2.19,0,0,0,271.15,26.09Z"/><path class="cls-25" d="M273.43,20.24V19.06h0.78v1.18h-0.78Zm0,8.19V21.67h0.78v6.76h-0.78Z"/><path class="cls-25" d="M276.62,25.2v0a3,3,0,0,0,.6,2,2,2,0,0,0,1.6.73,2.05,2.05,0,0,0,1.33-.43,1.79,1.79,0,0,0,.65-1.17h0.78a2.42,2.42,0,0,1-.89,1.65,3,3,0,0,1-1.92.62,2.67,2.67,0,0,1-2.16-.93,3.92,3.92,0,0,1-.78-2.59,4,4,0,0,1,.79-2.64,2.68,2.68,0,0,1,2.18-.95,2.62,2.62,0,0,1,2.12.91,3.83,3.83,0,0,1,.76,2.53V25.2h-5.05Zm0-.63h4.23a2.79,2.79,0,0,0-.61-1.76,1.86,1.86,0,0,0-1.48-.64,1.93,1.93,0,0,0-1.51.65A2.74,2.74,0,0,0,276.63,24.57Z"/><path class="cls-25" d="M283.19,28.43V21.67h0.76v1.08a2.47,2.47,0,0,1,2.24-1.25,2.86,2.86,0,0,1,1.23.25,1.83,1.83,0,0,1,.81.71,1.68,1.68,0,0,1,.21.57,6.53,6.53,0,0,1,.06,1.1v4.31h-0.81V24.24a2.57,2.57,0,0,0-.37-1.61A1.63,1.63,0,0,0,286,22.2a1.93,1.93,0,0,0-1.5.6,2.33,2.33,0,0,0-.55,1.64v4h-0.79Z"/><path class="cls-25" d="M295,26.09h0.78a2.68,2.68,0,0,1-.86,1.83,2.82,2.82,0,0,1-2,.67,2.68,2.68,0,0,1-2.16-.94,3.85,3.85,0,0,1-.79-2.56,4,4,0,0,1,.8-2.64,2.72,2.72,0,0,1,2.2-1,2.75,2.75,0,0,1,1.87.64,2.3,2.3,0,0,1,.79,1.68h-0.75a1.79,1.79,0,0,0-.62-1.18,2.08,2.08,0,0,0-2.9.32,3.29,3.29,0,0,0-.59,2.07,3.4,3.4,0,0,0,.6,2.12,1.93,1.93,0,0,0,1.61.78,1.86,1.86,0,0,0,1.32-.49A2.19,2.19,0,0,0,295,26.09Z"/><path class="cls-25" d="M297.65,25.2v0a3,3,0,0,0,.6,2,2,2,0,0,0,1.6.73,2.05,2.05,0,0,0,1.33-.43,1.79,1.79,0,0,0,.65-1.17h0.78a2.42,2.42,0,0,1-.89,1.65,3,3,0,0,1-1.92.62,2.67,2.67,0,0,1-2.16-.93,3.92,3.92,0,0,1-.78-2.59,4,4,0,0,1,.79-2.64,2.68,2.68,0,0,1,2.18-.95,2.62,2.62,0,0,1,2.12.91,3.83,3.83,0,0,1,.76,2.53V25.2h-5.05Zm0-.63h4.23a2.79,2.79,0,0,0-.61-1.76,1.86,1.86,0,0,0-1.48-.64,1.93,1.93,0,0,0-1.51.65A2.74,2.74,0,0,0,297.66,24.57Z"/><path class="cls-26" d="M74.83,37.36a1.9,1.9,0,0,1,.65-1.44,2.36,2.36,0,0,1,3.16,0,1.9,1.9,0,0,1,.65,1.44v19a1.9,1.9,0,0,1-.65,1.44,2.36,2.36,0,0,1-3.16,0,1.89,1.89,0,0,1-.65-1.44v-19Z"/><path class="cls-26" d="M82.9,93a2.66,2.66,0,0,1-1.23-.3,2.26,2.26,0,0,1-.91-0.81L73.35,79V90.92a1.92,1.92,0,0,1-.67,1.45,2.27,2.27,0,0,1-1.6.62,2.16,2.16,0,0,1-1.57-.62,2,2,0,0,1-.64-1.45V72.08a2.05,2.05,0,0,1,.65-1.55,2.34,2.34,0,0,1,1.68-.62,2.64,2.64,0,0,1,2.17,1.18l1.93,3.38,1.72,3,1.74,3.07q0.89,1.58,2,3.5V72a1.93,1.93,0,0,1,.67-1.45,2.27,2.27,0,0,1,1.6-.62,2.16,2.16,0,0,1,1.56.62A2,2,0,0,1,85.26,72V90.83a2.07,2.07,0,0,1-.65,1.53A2.34,2.34,0,0,1,82.9,93Z"/></svg>